<?xml version="1.0" encoding="utf-8"?>
<!-- Generator: Adobe Illustrator 23.1.0, SVG Export Plug-In . SVG Version: 6.00 Build 0)  -->
<svg version="1.1" id="Layer_1" xmlns="http://www.w3.org/2000/svg" xmlns:xlink="http://www.w3.org/1999/xlink" x="0px" y="0px"
	 viewBox="0 0 1949 1080" style="enable-background:new 0 0 1949 1080;" xml:space="preserve">
<style type="text/css">
	.st0{fill:url(#SVGID_1_);}
	.st1{opacity:0.6;}
	.st2{fill:#94C7FF;fill-opacity:0;}
	.st3{fill:url(#SVGID_2_);}
	.st4{fill:#001505;}
	.st5{fill:url(#SVGID_3_);}
	.st6{fill:url(#SVGID_4_);}
	.st7{fill:url(#SVGID_5_);}
	.st8{opacity:0.5;enable-background:new    ;}
	.st9{fill:none;}
	.st10{fill:#55FF63;}
	.st11{fill:#666666;}
	.st12{fill:#DCDCDC;}
	.st13{fill:#D8D8D8;}
	.st14{fill:#003DB4;}
	.st15{fill:#C5237F;}
	.st16{fill:#E9FF74;}
	.st17{fill:#FF4A5E;}
	.st18{fill:url(#SVGID_6_);}
	.st19{fill:#F2F2F2;}
	.st20{fill:url(#SVGID_7_);}
	.st21{fill:#E6E6E6;}
	.st22{fill:#808080;}
	.st23{opacity:0.5;}
	.st24{fill:url(#SVGID_8_);}
	.st25{fill:url(#SVGID_9_);}
	.st26{fill:url(#SVGID_10_);}
	.st27{clip-path:url(#SVGID_12_);}
	.st28{fill:#D1D1D1;}
	.st29{fill:#D6D6D6;}
	.st30{fill:#DBDBDB;}
	.st31{fill:#E0E0E0;}
	.st32{fill:#EBEBEB;}
	.st33{fill:#F0F0F0;}
	.st34{fill:#F5F5F5;}
	.st35{fill:#FAFAFA;}
	.st36{fill:#FFFFFF;}
	.st37{fill:#CCCCCC;}
	.st38{fill:#C7C7C7;}
	.st39{fill:#C2C2C2;}
	.st40{fill:#BDBDBD;}
	.st41{fill:#B8B8B8;}
	.st42{fill:#B3B3B3;}
	.st43{fill:#ADADAD;}
	.st44{fill:#A8A8A8;}
	.st45{fill:#DDDDDD;}
	.st46{fill:#B7B7B7;}
	.st47{clip-path:url(#SVGID_14_);}
	.st48{fill:#858585;}
	.st49{fill:#8A8A8A;}
	.st50{fill:#8F8F8F;}
	.st51{fill:#949494;}
	.st52{fill:#999999;}
	.st53{fill:#9E9E9E;}
	.st54{fill:#A3A3A3;}
	.st55{clip-path:url(#SVGID_16_);}
	.st56{clip-path:url(#SVGID_18_);}
	.st57{clip-path:url(#SVGID_20_);}
	.st58{clip-path:url(#SVGID_22_);}
	.st59{fill:url(#SVGID_23_);}
	.st60{fill:#E70385;}
</style>
<title>Lite</title>
<g>
	<g>
		
			<linearGradient id="SVGID_1_" gradientUnits="userSpaceOnUse" x1="0" y1="234" x2="1920" y2="234" gradientTransform="matrix(1 0 0 1 0 306)">
			<stop  offset="0" style="stop-color:#CCE0F4"/>
			<stop  offset="4.000000e-02" style="stop-color:#C3DCF2"/>
			<stop  offset="9.000000e-02" style="stop-color:#A9D1ED"/>
			<stop  offset="0.17" style="stop-color:#80BFE5"/>
			<stop  offset="0.26" style="stop-color:#47A6DA"/>
			<stop  offset="0.33" style="stop-color:#1590D0"/>
			<stop  offset="0.57" style="stop-color:#1E9CD7"/>
			<stop  offset="0.69" style="stop-color:#0075BE"/>
			<stop  offset="0.99" style="stop-color:#005B97"/>
		</linearGradient>
		<rect class="st0" width="1920" height="1080"/>
		<g class="st1">
			
				<image style="overflow:visible;enable-background:new    ;" width="647" height="716" xlink:href="23E85747.png"  transform="matrix(0.9985 0 0 0.9985 1249.96 114.5533)">
			</image>
		</g>
		<path class="st2" d="M1527.1,826.4c6,27.1,115.8,31.1,57.9,15.6s-5-4.3-5-4.3l27.5,30.4c0,0-19.1-26.5-0.1-2.3
			s-117.6-83.2-43-86.1s69.2-27.5,74.6-2.9s4.8,22.1,4.8,22.1s-186.9,30.3-150.6,51.6s9.4,4.4,36.3,21.3c11.6,7.3,13.8,5.7,12.6,1.6
			c-1.6-5.5-9.3-15.5-9.3-15.5s-100.3,73.9,14.4,19.9c42.8-20.1,87.1-17.5,42.8-20.1s-42.6,24.6-42.6,24.6
			c7.3-32.2,41.2,43.3,41.2,43.3c-56.3,22.7-55.7,25-55.7,25s3.6-18,7.3-34.2s46.1-44.8,60.3-18.4s87.7,20.8,50.7-27.2
			s-16.3-74-37-48s-74.9,75.7-74.9,75.7l-25.8,10.1c0,0-23.6-41.8-9-6.4s-7.5,29.7,14.6,35.5s-17.3,3-17.3,3l26.8,14.6L1619,922
			l-4.4,0.2l-38.3,22l-14-22"/>
		
			<radialGradient id="SVGID_2_" cx="1512" cy="126" r="0" gradientTransform="matrix(1 0 0 1 0 306)" gradientUnits="userSpaceOnUse">
			<stop  offset="0" style="stop-color:#FFDF6A"/>
			<stop  offset="0.48" style="stop-color:#A1AF98"/>
			<stop  offset="0.83" style="stop-color:#628EB7"/>
			<stop  offset="1" style="stop-color:#4981C3"/>
		</radialGradient>
		<path class="st3" d="M1512,432"/>
		<path class="st4" d="M1543,0L1543,0c44.7,0,81,20.9,81,46.7v88.1c0,25.8-36.3,46.7-81,46.7l0,0c-44.7,0-81-20.9-81-46.7V46.7
			C1462,20.9,1498.3,0,1543,0z"/>
		
			<linearGradient id="SVGID_3_" gradientUnits="userSpaceOnUse" x1="1543" y1="833.11" x2="1543" y2="933.11" gradientTransform="matrix(1 0 0 -1 0 1080)">
			<stop  offset="0" style="stop-color:#CCE0F4"/>
			<stop  offset="0" style="stop-color:#C3DAF0"/>
			<stop  offset="0" style="stop-color:#A9C9E4"/>
			<stop  offset="0" style="stop-color:#80AED1"/>
			<stop  offset="0" style="stop-color:#4689B7"/>
			<stop  offset="0" style="stop-color:#005B97"/>
			<stop  offset="0" style="stop-color:#FEE4D4;stop-opacity:0.8"/>
			<stop  offset="0.13" style="stop-color:#F6F08E"/>
			<stop  offset="0.34" style="stop-color:#231F20"/>
			<stop  offset="0.67" style="stop-color:#231F20"/>
		</linearGradient>
		<path class="st5" d="M1610.2,246.9h-134.4c-18.1,0-32.8-12.5-32.8-28v-44c0-15.5,14.7-28,32.8-28h134.4c18.1,0,32.8,12.5,32.8,28
			v44C1643,234.4,1628.3,246.9,1610.2,246.9z"/>
		
			<radialGradient id="SVGID_4_" cx="1606.5" cy="171" r="3.182" gradientTransform="matrix(1 0 0 1 0 306)" gradientUnits="userSpaceOnUse">
			<stop  offset="0" style="stop-color:#FFFFFF"/>
			<stop  offset="1" style="stop-color:#000000"/>
		</radialGradient>
		<polygon class="st6" points="1602,477 1611,477 1611,477 1602,477 		"/>
		
			<radialGradient id="SVGID_5_" cx="1602" cy="603" r="0.3967" gradientTransform="matrix(1 0 0 -1 0 1080)" gradientUnits="userSpaceOnUse">
			<stop  offset="0" style="stop-color:#FFFFFF"/>
			<stop  offset="1" style="stop-color:#000000"/>
		</radialGradient>
		<polygon class="st7" points="1593,477 1611,477 1611,477 1593,477 		"/>
		<g class="st8">
			
				<image style="overflow:visible;" width="1187" height="977" xlink:href="23E85745.png"  transform="matrix(1 0 0 1 -142.205 54.58)">
			</image>
		</g>
		<path class="st9" d="M308.3,129.7h738.4c76.9,0,139.3,62.4,139.3,139.3v531.4c0,76.9-62.4,139.3-139.3,139.3H308.3
			c-76.9,0-139.3-62.4-139.3-139.3V269C169,192.1,231.4,129.7,308.3,129.7z"/>
		<path class="st9" d="M308.3,129.7h738.4c76.9,0,139.3,62.4,139.3,139.3v531.4c0,76.9-62.4,139.3-139.3,139.3H308.3
			c-76.9,0-139.3-62.4-139.3-139.3V269C169,192.1,231.4,129.7,308.3,129.7z"/>
		<path class="st10" d="M566.9,342.4h20.7v134.3H656v16.4h-89L566.9,342.4z"/>
		<path class="st10" d="M713.3,354.4c0,6.7-5,12.2-13.3,12.2c-7.5,0-12.6-5.5-12.6-12.2s5.3-12.2,13-12.2S713.3,347.6,713.3,354.4z
			 M690,493.1V385h20.7v108.1H690z"/>
		<path class="st10" d="M782.3,353.9V385h29.9v14.9h-29.9v58.3c0,13.5,4.1,21.1,15.8,21.1c4.1,0.1,8.1-0.4,12.1-1.4l1,14.9
			c-4,1.5-10.5,2.7-18.6,2.7c-9.6,0-17.5-3-22.5-8.3c-5.7-6-8.1-15.5-8.1-28.2v-59h-17.8V385h17.8v-26L782.3,353.9z"/>
		<path class="st10" d="M857.9,442.6c0.4,26.6,18.3,37.5,39.2,37.5c14.9,0,24-2.5,31.7-5.5l3.7,14c-7.3,3.1-20,6.9-38.2,6.9
			c-35.2,0-56.4-22.1-56.4-54.6c0-32.8,20.5-58.4,53.9-58.4c37.4,0,47.2,31,47.2,50.9c0.1,3.1-0.2,6.2-0.7,9.2L857.9,442.6z
			 M918.9,428.5c0.2-12.4-5.4-31.8-28.8-31.8c-21.3,0-30.3,18.1-32,31.8H918.9z"/>
		<path class="st11" d="M511.9,574.3c0-1.6,0-2.9-0.1-4.1h2l0.1,2.2l0,0c0.9-1.6,2.6-2.5,4.4-2.4c3,0,5.2,2.6,5.2,6.4
			c0,4.5-2.7,6.8-5.6,6.8c-1.5,0.1-3-0.7-3.8-2l0,0v6.8h-2.2L511.9,574.3z M514.1,577.6c0,0.3,0,0.6,0.1,0.9
			c0.4,1.6,1.7,2.7,3.3,2.7c2.4,0,3.7-2,3.7-4.9c0-2.5-1.3-4.7-3.7-4.7c-1.6,0.1-3,1.2-3.4,2.8c-0.1,0.3-0.1,0.6-0.1,0.9V577.6z"/>
		<path class="st11" d="M527.6,574.1c0-1.5,0-2.8-0.1-3.9h2l0.1,2.5h0.1c0.4-1.6,1.8-2.7,3.4-2.8c0.2,0,0.4,0,0.6,0.1v2.2
			c-0.3,0-0.5-0.1-0.8-0.1c-1.6,0.1-2.9,1.3-3,2.9c-0.1,0.4-0.1,0.7-0.1,1.1v6.7h-2.2L527.6,574.1z"/>
		<path class="st11" d="M548,576.4c0,4.7-3.2,6.7-6.1,6.7c-3.3,0-5.9-2.5-5.9-6.5c0-4.2,2.7-6.7,6.1-6.7S548,572.5,548,576.4z
			 M538.3,576.5c0,2.8,1.5,4.8,3.7,4.8s3.8-2.1,3.8-4.9c0-2.1-1-4.8-3.7-4.8S538.3,574.1,538.3,576.5z"/>
		<path class="st11" d="M552.8,570.2l2.4,7.1c0.4,1.1,0.7,2.1,1,3.3h0.1c0.3-1,0.6-2.1,1-3.3l2.4-7.1h2.3l-4.8,12.6h-2.1l-4.7-12.6
			H552.8z"/>
		<path class="st11" d="M568,566.6c0,0.8-0.6,1.4-1.3,1.4c0,0,0,0,0,0h-0.1c-0.7,0-1.3-0.6-1.3-1.3c0,0,0,0,0,0v-0.1
			c-0.1-0.8,0.5-1.4,1.3-1.5s1.4,0.5,1.5,1.3l0,0C568,566.5,568,566.6,568,566.6L568,566.6z M565.5,582.8v-12.6h2.2v12.6H565.5z"/>
		<path class="st11" d="M583.3,564.3v15.2c0,1.1,0,2.2,0.1,3.2h-2l-0.1-2.2h-0.1c-0.8,1.6-2.4,2.5-4.2,2.5c-3,0-5.3-2.6-5.3-6.4
			c0-4.2,2.5-6.8,5.5-6.8c1.5-0.1,2.9,0.6,3.7,1.9h0v-7.5H583.3z M581.1,575.3c0-0.3,0-0.7-0.1-1c-0.3-1.5-1.7-2.6-3.2-2.6
			c-2.3,0-3.7,2.1-3.7,4.8c0,2.6,1.3,4.7,3.7,4.7c1.6,0,3-1.2,3.3-2.8c0.1-0.3,0.1-0.7,0.1-1V575.3z"/>
		<path class="st11" d="M589.5,576.9c0,3.1,2,4.4,4.2,4.4c1.2,0,2.3-0.2,3.4-0.6l0.4,1.6c-1.3,0.6-2.7,0.8-4.1,0.8
			c-3.8,0-6-2.6-6-6.3s2.2-6.8,5.8-6.8c4,0,5,3.6,5,5.9c0,0.4,0,0.7-0.1,1.1H589.5z M596.1,575.3c0-1.4-0.6-3.7-3.1-3.7
			c-2.3,0-3.3,2.1-3.4,3.7H596.1z"/>
		<path class="st11" d="M602,580.4c0.9,0.6,1.9,0.9,3,0.9c1.6,0,2.4-0.8,2.4-1.9s-0.7-1.7-2.3-2.3c-2.2-0.8-3.3-2.1-3.3-3.6
			c0-2,1.6-3.7,4.3-3.7c1.1,0,2.1,0.2,3,0.8l-0.5,1.7c-0.8-0.5-1.6-0.7-2.5-0.7c-1-0.1-1.9,0.6-2,1.6c0,0,0,0.1,0,0.2
			c0,1,0.7,1.5,2.3,2.1c2.1,0.8,3.2,1.9,3.2,3.8c0,2.2-1.7,3.8-4.6,3.8c-1.2,0-2.4-0.3-3.5-0.9L602,580.4z"/>
		<path class="st11" d="M621.1,570.2l2.7,7.4c0.3,0.8,0.6,1.8,0.8,2.6h0.1c0.2-0.7,0.5-1.7,0.8-2.6l2.4-7.4h2.4l-3.4,9
			c-1.6,4.3-2.7,6.5-4.2,7.9c-0.8,0.7-1.7,1.2-2.7,1.5l-0.6-1.9c0.7-0.2,1.4-0.6,2-1.1c0.8-0.7,1.4-1.6,1.9-2.5
			c0.1-0.2,0.2-0.4,0.2-0.6c0-0.2-0.1-0.4-0.2-0.6l-4.5-11.6L621.1,570.2z"/>
		<path class="st11" d="M644.4,576.4c0,4.7-3.2,6.7-6.1,6.7c-3.3,0-5.9-2.5-5.9-6.5c0-4.2,2.7-6.7,6.1-6.7S644.4,572.5,644.4,576.4z
			 M634.7,576.5c0,2.8,1.5,4.8,3.7,4.8s3.8-2.1,3.8-4.9c0-2.1-1-4.8-3.7-4.8S634.7,574.1,634.7,576.5z"/>
		<path class="st11" d="M658.8,579.3c0,1.3,0,2.5,0.1,3.4h-2l-0.1-2h-0.1c-0.8,1.5-2.4,2.4-4.1,2.3c-1.9,0-4.2-1.1-4.2-5.5v-7.4h2.2
			v7c0,2.4,0.7,4,2.8,4c1.3,0,2.5-0.9,3-2.1c0.1-0.4,0.2-0.8,0.2-1.2v-7.7h2.2L658.8,579.3z"/>
		<path class="st12" d="M671.7,576.9c0,3.1,2,4.4,4.2,4.4c1.2,0,2.3-0.2,3.4-0.6l0.4,1.6c-1.3,0.6-2.7,0.8-4.1,0.8
			c-3.8,0-6-2.6-6-6.3s2.2-6.8,5.8-6.8c4,0,5.1,3.6,5.1,5.9c0,0.4,0,0.7-0.1,1.1H671.7z M678.3,575.3c0-1.4-0.6-3.7-3.1-3.7
			c-2.3,0-3.3,2.1-3.4,3.7H678.3z"/>
		<path class="st12" d="M684.5,573.6c0-1.3,0-2.4-0.1-3.4h1.9l0.1,2h0.1c0.7-1.5,2.2-2.4,3.9-2.3c1.6,0,3,1,3.5,2.5l0,0
			c0.3-0.6,0.8-1.2,1.4-1.6c0.8-0.6,1.7-0.9,2.7-0.9c1.6,0,4.1,1.1,4.1,5.5v7.4h-2.2v-7.1c0-2.4-0.9-3.9-2.7-3.9
			c-1.2,0.1-2.3,0.9-2.7,2.1c-0.1,0.4-0.2,0.8-0.2,1.1v7.8h-2.2v-7.5c0-2-0.9-3.4-2.5-3.4c-1.3,0.1-2.4,1-2.8,2.3
			c-0.1,0.4-0.2,0.7-0.2,1.1v7.6h-2.2L684.5,573.6z"/>
		<path class="st12" d="M708.2,576.9c0,3.1,2,4.4,4.2,4.4c1.2,0,2.3-0.2,3.4-0.6l0.4,1.6c-1.3,0.6-2.7,0.8-4.1,0.8
			c-3.8,0-6-2.6-6-6.3s2.2-6.8,5.8-6.8c4,0,5.1,3.6,5.1,5.9c0,0.4,0,0.7-0.1,1.1H708.2z M714.7,575.3c0-1.4-0.6-3.7-3.1-3.7
			c-2.3,0-3.3,2.1-3.4,3.7H714.7z"/>
		<path class="st12" d="M720.9,574.1c0-1.5,0-2.8-0.1-3.9h2l0.1,2.5h0.1c0.4-1.6,1.8-2.7,3.4-2.8c0.2,0,0.4,0,0.6,0.1v2.2
			c-0.3,0-0.5-0.1-0.8-0.1c-1.6,0.1-2.9,1.3-3,2.9c-0.1,0.4-0.1,0.7-0.1,1.1v6.7H721L720.9,574.1z"/>
		<path class="st12" d="M740.9,570.2c-0.1,0.9-0.1,1.9-0.1,3.4v7.3c0,2.9-0.6,4.7-1.8,5.8c-1.2,1-2.8,1.6-4.5,1.5
			c-1.4,0.1-2.9-0.3-4.1-1l0.6-1.8c1.1,0.7,2.3,1,3.6,1c2.3,0,4-1.2,4-4.4v-1.4l0,0c-0.8,1.4-2.3,2.2-3.9,2.1
			c-3.1,0-5.2-2.7-5.2-6.2c0-4.3,2.7-6.7,5.5-6.7c1.6-0.1,3.1,0.8,3.8,2.2h0.1l0.1-1.9L740.9,570.2z M738.6,575.1c0-0.3,0-0.7-0.1-1
			c-0.4-1.4-1.7-2.4-3.1-2.4c-2.1,0-3.7,1.8-3.7,4.8c0,2.5,1.2,4.5,3.6,4.5c1.4,0,2.7-1,3.1-2.3c0.1-0.4,0.2-0.8,0.2-1.2V575.1z"/>
		<path class="st12" d="M748.1,566.6c0,0.8-0.7,1.4-1.4,1.4c-0.8,0-1.4-0.7-1.4-1.4c0-0.8,0.6-1.4,1.4-1.4
			C747.5,565.2,748.1,565.8,748.1,566.6L748.1,566.6L748.1,566.6z M745.6,582.8v-12.6h2.2v12.6H745.6z"/>
		<path class="st12" d="M752.9,573.6c0-1.3,0-2.4-0.1-3.4h2l0.1,2.1h0.1c0.8-1.5,2.4-2.4,4.1-2.3c1.7,0,4.3,1,4.3,5.4v7.5h-2.2v-7.3
			c0-2-0.8-3.7-2.8-3.7c-1.4,0.1-2.6,1-3,2.3c-0.1,0.3-0.2,0.7-0.2,1.1v7.6h-2.3L752.9,573.6z"/>
		<path class="st12" d="M778.8,570.2c-0.1,0.9-0.1,1.9-0.1,3.4v7.3c0,2.9-0.6,4.7-1.8,5.8c-1.3,1-2.9,1.6-4.5,1.5
			c-1.4,0.1-2.9-0.3-4.1-1l0.6-1.8c1.1,0.7,2.3,1,3.6,1c2.3,0,4-1.2,4-4.4v-1.4l0,0c-0.8,1.4-2.3,2.2-3.9,2.1
			c-3.1,0-5.2-2.7-5.2-6.2c0-4.3,2.7-6.7,5.5-6.7c1.6-0.1,3.1,0.8,3.8,2.2l0,0l0.1-1.9L778.8,570.2z M776.5,575.1c0-0.3,0-0.7-0.1-1
			c-0.4-1.4-1.7-2.4-3.1-2.4c-2.1,0-3.7,1.8-3.7,4.8c0,2.5,1.2,4.5,3.6,4.5c1.4,0,2.7-1,3.1-2.3c0.1-0.4,0.2-0.8,0.2-1.2V575.1z"/>
		<path class="st12" d="M792.9,566.6c0,0.8-0.6,1.4-1.3,1.4c0,0,0,0,0,0h-0.1c-0.7,0-1.3-0.6-1.3-1.3c0,0,0,0,0,0v-0.1
			c-0.1-0.8,0.5-1.4,1.3-1.5s1.4,0.5,1.5,1.3l0,0C792.9,566.5,792.9,566.6,792.9,566.6L792.9,566.6z M790.4,582.8v-12.6h2.2v12.6
			H790.4z"/>
		<path class="st12" d="M808.2,564.3v15.2c0,1.1,0,2.2,0.1,3.2h-2l-0.1-2.2h-0.1c-0.8,1.6-2.4,2.5-4.2,2.5c-3,0-5.3-2.6-5.3-6.4
			c0-4.2,2.5-6.8,5.5-6.8c1.5-0.1,2.9,0.6,3.7,1.9l0,0v-7.5H808.2z M806,575.3c0-0.3,0-0.7-0.1-1c-0.3-1.5-1.7-2.6-3.2-2.6
			c-2.3,0-3.7,2.1-3.7,4.8c0,2.6,1.2,4.7,3.7,4.7c1.6,0,3-1.2,3.3-2.8c0.1-0.3,0.1-0.7,0.1-1L806,575.3z"/>
		<path class="st12" d="M814.5,576.9c0,3.1,2,4.4,4.2,4.4c1.2,0,2.3-0.2,3.4-0.6l0.4,1.6c-1.3,0.6-2.7,0.8-4.1,0.8
			c-3.8,0-6-2.6-6-6.3s2.2-6.8,5.8-6.8c4,0,5.1,3.6,5.1,5.9c0,0.4,0,0.7-0.1,1.1H814.5z M821,575.3c0-1.4-0.6-3.7-3.1-3.7
			c-2.3,0-3.3,2.1-3.4,3.7H821z"/>
		<path class="st12" d="M834,582.8l-0.2-1.6h-0.1c-0.9,1.2-2.3,1.9-3.8,1.9c-2,0.1-3.6-1.4-3.7-3.3c0-0.1,0-0.2,0-0.3
			c0-3,2.6-4.7,7.4-4.7v-0.3c0.2-1.4-0.8-2.7-2.2-2.9c-0.2,0-0.4,0-0.6,0c-1.1,0-2.2,0.3-3.2,0.9l-0.5-1.5c1.2-0.7,2.6-1.1,4.1-1.1
			c3.8,0,4.7,2.6,4.7,5.2v4.7c0,1,0.1,2,0.2,3L834,582.8z M833.7,576.4c-2.4,0-5.2,0.4-5.2,2.8c-0.1,1.1,0.7,2.1,1.8,2.2
			c0,0,0,0,0,0c0.1,0,0.2,0,0.3,0c1.4,0,2.6-0.8,3-2.1c0.1-0.2,0.1-0.5,0.1-0.7L833.7,576.4z"/>
		<path class="st12" d="M840.4,580.4c0.9,0.6,1.9,0.9,3,0.9c1.6,0,2.4-0.8,2.4-1.9s-0.7-1.7-2.3-2.3c-2.2-0.8-3.3-2.1-3.3-3.6
			c0-2,1.6-3.7,4.3-3.7c1.1,0,2.1,0.2,3,0.8l-0.5,1.7c-0.8-0.5-1.6-0.7-2.5-0.7c-1-0.1-1.9,0.6-2,1.6c0,0,0,0.1,0,0.2
			c0,1,0.7,1.5,2.3,2.1c2.1,0.8,3.2,1.9,3.2,3.8c0,2.2-1.7,3.8-4.6,3.8c-1.2,0-2.4-0.3-3.5-0.9L840.4,580.4z"/>
		<path class="st11" d="M861.4,566.6v3.6h3.2v1.7h-3.2v6.8c0,1.6,0.4,2.5,1.7,2.5c0.4,0,0.9,0,1.3-0.2l0.1,1.7
			c-0.6,0.2-1.3,0.3-2,0.3c-0.9,0-1.8-0.3-2.4-1c-0.7-1-1-2.1-0.9-3.3v-6.9h-1.9v-1.7h1.9v-3L861.4,566.6z"/>
		<path class="st11" d="M879.4,576.4c0,4.7-3.2,6.7-6.1,6.7c-3.3,0-5.9-2.5-5.9-6.5c0-4.2,2.7-6.7,6.1-6.7S879.4,572.5,879.4,576.4z
			 M869.6,576.5c0,2.8,1.5,4.8,3.7,4.8s3.8-2.1,3.8-4.9c0-2.1-1-4.8-3.7-4.8S869.6,574.1,869.6,576.5z"/>
		<path class="st13" d="M891.4,576.9c0,3.1,2,4.4,4.2,4.4c1.2,0,2.3-0.2,3.4-0.6l0.4,1.6c-1.3,0.6-2.7,0.8-4.1,0.8
			c-3.8,0-6-2.6-6-6.3s2.2-6.8,5.8-6.8c4,0,5.1,3.6,5.1,5.9c0,0.4,0,0.7-0.1,1.1H891.4z M898,575.3c0-1.4-0.6-3.7-3.1-3.7
			c-2.3,0-3.3,2.1-3.4,3.7H898z"/>
		<path class="st12" d="M905.1,570.2l1.8,2.7c0.5,0.7,0.8,1.3,1.3,2l0,0c0.4-0.7,0.8-1.4,1.3-2.1l1.7-2.7h2.4l-4.2,6.1l4.3,6.5h-2.5
			l-1.8-2.8c-0.5-0.7-0.9-1.4-1.3-2.2l0,0c-0.4,0.8-0.8,1.4-1.3,2.2l-1.8,2.8h-2.5l4.4-6.4l-4.2-6.2L905.1,570.2z"/>
		<path class="st12" d="M917.1,574.3c0-1.6,0-2.9-0.1-4.1h2l0.1,2.2h0c0.9-1.6,2.6-2.5,4.4-2.4c3,0,5.2,2.6,5.2,6.4
			c0,4.5-2.7,6.8-5.6,6.8c-1.5,0.1-3-0.7-3.8-2l0,0v6.8h-2.2L917.1,574.3z M919.3,577.6c0,0.3,0,0.6,0.1,0.9
			c0.4,1.6,1.7,2.7,3.3,2.7c2.4,0,3.7-2,3.7-4.9c0-2.5-1.3-4.7-3.7-4.7c-1.6,0-3,1.2-3.4,2.8c-0.1,0.3-0.1,0.6-0.1,0.9L919.3,577.6z
			"/>
		<path class="st12" d="M932.9,564.3h2.2v18.5h-2.2V564.3z"/>
		<path class="st12" d="M951.3,576.4c0,4.7-3.2,6.7-6.1,6.7c-3.3,0-5.9-2.5-5.9-6.5c0-4.2,2.7-6.7,6.1-6.7S951.3,572.5,951.3,576.4z
			 M941.5,576.5c0,2.8,1.5,4.8,3.7,4.8s3.8-2.1,3.8-4.9c0-2.1-1-4.8-3.7-4.8S941.5,574.1,941.5,576.5z"/>
		<path class="st12" d="M955.3,574.1c0-1.5,0-2.8-0.1-3.9h2l0.1,2.5h0.1c0.4-1.6,1.8-2.7,3.4-2.8c0.2,0,0.4,0,0.6,0.1v2.2
			c-0.3-0.1-0.5-0.1-0.8-0.1c-1.6,0.1-2.9,1.3-3,2.9c-0.1,0.4-0.1,0.7-0.1,1.1v6.7h-2.2L955.3,574.1z"/>
		<path class="st12" d="M965.9,576.9c0,3.1,2,4.4,4.2,4.4c1.2,0,2.3-0.2,3.4-0.6l0.4,1.6c-1.3,0.6-2.7,0.8-4.1,0.8
			c-3.8,0-6-2.6-6-6.3s2.2-6.8,5.8-6.8c4,0,5.1,3.6,5.1,5.9c0,0.4,0,0.7-0.1,1.1H965.9z M972.5,575.3c0-1.4-0.6-3.7-3.1-3.7
			c-2.3,0-3.3,2.1-3.4,3.7H972.5z"/>
		<path class="st11" d="M992.2,582.8l-0.2-1.6h-0.1c-0.9,1.2-2.3,1.9-3.8,1.9c-2,0.1-3.6-1.4-3.7-3.3c0,0,0,0,0,0c0-0.1,0-0.2,0-0.3
			c0-3,2.6-4.7,7.4-4.7v-0.3c0.2-1.4-0.8-2.7-2.2-2.9c-0.2,0-0.4,0-0.6,0c-1.1,0-2.2,0.3-3.2,0.9l-0.5-1.5c1.2-0.7,2.6-1.1,4.1-1.1
			c3.8,0,4.7,2.6,4.7,5.2v4.7c0,1,0.1,2,0.2,3L992.2,582.8z M991.8,576.4c-2.4,0-5.2,0.4-5.2,2.8c-0.1,1.1,0.7,2.1,1.8,2.2
			c0,0,0,0,0,0h0.3c1.4,0,2.6-0.8,3-2.1c0.1-0.2,0.1-0.5,0.1-0.7L991.8,576.4z"/>
		<path class="st11" d="M998.9,573.6c0-1.3,0-2.4-0.1-3.4h2l0.1,2.1h0.1c0.8-1.5,2.4-2.4,4.1-2.3c1.7,0,4.3,1,4.3,5.4v7.5h-2.2v-7.3
			c0-2-0.8-3.7-2.8-3.7c-1.4,0.1-2.6,1-3,2.3c-0.1,0.3-0.2,0.7-0.2,1.1v7.6h-2.2L998.9,573.6z"/>
		<path class="st11" d="M1024.9,564.3v15.2c0,1.1,0,2.2,0.1,3.2h-2l-0.1-2.2h-0.1c-0.8,1.6-2.4,2.5-4.2,2.5c-3,0-5.3-2.6-5.3-6.4
			c0-4.2,2.5-6.8,5.5-6.8c1.5-0.1,2.9,0.6,3.7,1.9l0,0v-7.5H1024.9z M1022.6,575.3c0-0.3,0-0.7-0.1-1c-0.3-1.5-1.7-2.6-3.2-2.6
			c-2.3,0-3.7,2.1-3.7,4.8c0,2.6,1.3,4.7,3.7,4.7c1.6,0,3-1.2,3.3-2.8c0.1-0.3,0.1-0.7,0.1-1V575.3z"/>
		<path class="st11" d="M505.2,594.7h2.6v13.9h8.5v1.7h-11.1V594.7z"/>
		<path class="st11" d="M533,604.5c0,4.1-3.7,6-7.1,6c-3.9,0-6.8-2.2-6.8-5.8c0-3.7,3.1-5.9,7.1-5.9
			C530.3,598.8,533,601.1,533,604.5z M521.7,604.7c-0.1,2.3,1.7,4.2,4,4.3h0.3c2.3,0.1,4.3-1.8,4.3-4.1c0,0,0,0,0,0v-0.3
			c-0.1-2.4-2.2-4.2-4.6-4.1C523.5,600.7,521.8,602.5,521.7,604.7L521.7,604.7z"/>
		<path class="st11" d="M537.8,602.5c0-1.2,0-2.3-0.1-3.5h2.3l0.1,2.2h0.1c0.7-1.5,2.3-2.5,4-2.4c0.2,0,0.5,0,0.7,0.1v1.9
			c-0.3,0-0.6-0.1-0.9-0.1c-1.6-0.1-3.1,1-3.5,2.6c-0.1,0.3-0.1,0.7-0.1,1v6h-2.6L537.8,602.5z"/>
		<path class="st11" d="M550,605c0,2.8,2.3,3.9,4.9,3.9c1.3,0,2.7-0.2,3.9-0.6l0.5,1.4c-1.5,0.5-3.1,0.8-4.8,0.7c-4.4,0-7-2.3-7-5.6
			s2.5-6,6.7-6c4.6,0,5.9,3.2,5.9,5.3c0,0.3,0,0.7-0.1,1L550,605z M557.6,603.5c0-1.3-0.7-3.3-3.6-3.3c-2-0.1-3.7,1.3-4,3.3H557.6z"
			/>
		<path class="st11" d="M564.8,602.1c0-1.2,0-2.1-0.1-3h2.3l0.1,1.8h0.1c1.1-1.4,2.8-2.1,4.5-2c1.7-0.1,3.2,0.8,4,2.2h0.1
			c0.4-0.6,1-1.1,1.6-1.5c0.9-0.6,2-0.8,3.1-0.8c2.5-0.1,4.6,1.7,4.7,4.2c0,0.2,0,0.4,0,0.7v6.6h-2.5V604c0-2.2-1-3.5-3.1-3.5
			c-1.3,0-2.5,0.7-3.1,1.8c-0.1,0.3-0.2,0.7-0.2,1v6.9h-2.5v-6.7c0.1-1.5-1-2.8-2.5-3c-0.2,0-0.4,0-0.5,0c-1.4,0-2.6,0.8-3.2,2
			c-0.1,0.3-0.2,0.7-0.2,1v6.7h-2.5L564.8,602.1z"/>
		<path class="st11" d="M601.5,595.9c0,0.7-0.6,1.3-1.7,1.3c-0.8,0.1-1.4-0.4-1.5-1.2c0,0,0,0,0,0c0,0,0,0,0-0.1
			c0-0.7,0.7-1.3,1.6-1.3S601.5,595.2,601.5,595.9z M598.6,610.2V599h2.6v11.2L598.6,610.2z"/>
		<path class="st11" d="M607,602.7c0-1.4,0-2.6-0.1-3.6h2.3l0.1,1.9h0.1c1.2-1.5,3.1-2.3,5.1-2.2c3.4,0,6,2.3,6,5.7c0,4-3.1,6-6.5,6
			c-1.7,0.1-3.3-0.5-4.4-1.8h-0.1v6.1H607V602.7z M609.6,605.7c0,0.3,0,0.6,0.1,0.8c0.6,1.5,2.2,2.5,3.9,2.4
			c2.2,0.2,4.1-1.4,4.3-3.6c0-0.2,0-0.5,0-0.7c-0.1-2.4-2-4.2-4.4-4.2c-1.6,0-3.1,1-3.8,2.5c-0.1,0.3-0.2,0.5-0.2,0.8V605.7z"/>
		<path class="st11" d="M624.8,608.2c1.1,0.5,2.3,0.8,3.4,0.8c1.9,0,2.8-0.7,2.8-1.7s-0.8-1.5-2.7-2c-2.6-0.7-3.8-1.8-3.8-3.2
			c0-1.8,1.9-3.3,4.9-3.3c1.2,0,2.4,0.2,3.5,0.7l-0.6,1.5c-0.9-0.4-1.9-0.7-2.9-0.7c-1.5,0-2.4,0.7-2.4,1.5s0.8,1.3,2.7,1.9
			c2.5,0.7,3.7,1.7,3.7,3.4c0,2-2,3.4-5.3,3.4c-1.4,0-2.7-0.2-4-0.8L624.8,608.2z"/>
		<path class="st11" d="M650.3,607.2c0,1,0,2,0.1,3h-2.3l-0.1-1.8h-0.1c-1.1,1.4-2.9,2.2-4.7,2.1c-2.2,0-4.9-1-4.9-4.9V599h2.6v6.2
			c0,2.1,0.8,3.6,3.2,3.6c1.4,0.1,2.7-0.7,3.4-1.9c0.1-0.3,0.2-0.7,0.2-1v-6.8h2.6L650.3,607.2z"/>
		<path class="st11" d="M656,602.1c0-1,0-2-0.1-3h2.3l0.1,1.8h0.1c1.1-1.4,2.8-2.1,4.5-2c1.7-0.1,3.2,0.8,4,2.2h0.1
			c0.4-0.6,1-1.1,1.6-1.5c0.9-0.6,2-0.8,3.1-0.8c2.5-0.1,4.6,1.7,4.7,4.2c0,0.2,0,0.4,0,0.7v6.6h-2.5V604c0-2.2-1-3.5-3.1-3.5
			c-1.3,0-2.5,0.7-3.1,1.8c-0.1,0.3-0.2,0.7-0.2,1v6.9H665v-6.7c0.1-1.5-1-2.8-2.5-3c-0.2,0-0.4,0-0.5,0c-1.4,0-2.6,0.8-3.2,2
			c-0.1,0.3-0.2,0.7-0.2,1v6.7H656L656,602.1z"/>
		<path class="st11" d="M702.1,593.8v13.5c0,1,0,1.9,0.1,2.9h-2.3l-0.1-1.9h-0.1c-1.1,1.5-3,2.3-4.8,2.2c-3.5,0-6.1-2.3-6.1-5.7
			c0-3.7,2.9-6,6.4-6c1.6-0.1,3.2,0.5,4.3,1.7h0.1v-6.7L702.1,593.8z M699.5,603.6c0-0.3,0-0.6-0.1-0.9c-0.6-1.5-2.1-2.5-3.8-2.3
			c-2.2-0.1-4.2,1.6-4.3,3.8c0,0,0,0,0,0c0,0.2,0,0.3,0,0.5c-0.1,2.2,1.6,4.1,3.8,4.2h0.4c1.7,0.1,3.2-0.9,3.8-2.4
			c0.1-0.3,0.1-0.6,0.1-0.9V603.6z"/>
		<path class="st11" d="M709.4,605c0.1,2.8,2.3,3.9,4.9,3.9c1.4,0,2.7-0.2,4-0.6l0.5,1.4c-1.5,0.5-3.1,0.8-4.8,0.7
			c-4.4,0-7-2.3-7-5.6s2.5-6,6.7-6c4.7,0,5.9,3.2,5.9,5.3c0,0.3,0,0.7-0.1,1L709.4,605z M717,603.5c0-1.3-0.7-3.3-3.6-3.3
			c-2-0.1-3.7,1.3-4,3.3H717z"/>
		<path class="st11" d="M731.9,602.1c0-1,0-2-0.1-3h2.3l0.1,1.8h0.1c1.1-1.4,2.8-2.1,4.5-2c1.7-0.1,3.2,0.8,4,2.2h0.1
			c0.4-0.6,1-1.1,1.6-1.5c1-0.6,2-0.8,3.1-0.8c2.5-0.1,4.6,1.7,4.7,4.2c0,0.2,0,0.5,0,0.7v6.6h-2.5V604c0-2.2-1-3.5-3.1-3.5
			c-1.3,0-2.5,0.7-3.1,1.8c-0.1,0.3-0.2,0.7-0.2,1v6.9h-2.5v-6.7c0.1-1.5-1-2.8-2.5-3c-0.2,0-0.4,0-0.5,0c-1.4,0-2.6,0.8-3.2,2
			c-0.1,0.3-0.2,0.7-0.2,1v6.7h-2.5L731.9,602.1z"/>
		<path class="st11" d="M765.8,610.2l-0.2-1.4h-0.1c-1.2,1.1-2.7,1.7-4.4,1.7c-2.9,0-4.3-1.6-4.3-3.2c0-2.7,3.1-4.2,8.6-4.2v-0.2
			c0-0.9-0.3-2.6-3.3-2.6c-1.3,0-2.6,0.3-3.7,0.8l-0.6-1.3c1.5-0.7,3.1-1,4.7-1c4.4,0,5.4,2.3,5.4,4.6v4.2c0,0.9,0.1,1.8,0.2,2.7
			L765.8,610.2z M765.4,604.5c-2.8,0-6,0.3-6,2.5c0,1.3,1.1,1.9,2.4,1.9c1.4,0.1,2.8-0.6,3.5-1.9c0.1-0.2,0.1-0.4,0.1-0.6
			L765.4,604.5z"/>
		<path class="st11" d="M773.6,593.8h2.6v16.4h-2.6V593.8z"/>
		<path class="st11" d="M789.9,610.2l-0.2-1.4h-0.1c-1.2,1.1-2.7,1.7-4.4,1.7c-2.9,0-4.4-1.6-4.4-3.2c0-2.7,3.1-4.2,8.6-4.2v-0.2
			c0-0.9-0.3-2.6-3.3-2.6c-1.3,0-2.6,0.3-3.7,0.8l-0.6-1.3c1.5-0.7,3.1-1,4.7-1c4.3,0,5.4,2.3,5.4,4.6v4.2c0,0.9,0.1,1.8,0.2,2.7
			L789.9,610.2z M789.5,604.5c-2.8,0-6,0.3-6,2.5c0,1.3,1.1,1.9,2.4,1.9c1.4,0.1,2.8-0.6,3.5-1.9c0.1-0.2,0.1-0.4,0.1-0.6
			L789.5,604.5z"/>
		<path class="st11" d="M800.7,595.8v3.2h3.7v1.5h-3.7v6c0,1.4,0.5,2.2,2,2.2c0.5,0,1,0,1.5-0.2l0.1,1.5c-0.8,0.2-1.5,0.3-2.3,0.3
			c-1,0.1-2-0.2-2.8-0.9c-0.7-0.8-1.1-1.8-1-2.9v-6.1H796V599h2.2v-2.7L800.7,595.8z"/>
		<path class="st11" d="M810.1,605c0,2.8,2.3,3.9,4.9,3.9c1.3,0,2.7-0.2,3.9-0.6l0.5,1.4c-1.5,0.5-3.1,0.8-4.8,0.7
			c-4.4,0-7-2.3-7-5.6s2.5-6,6.7-6c4.7,0,5.9,3.2,5.9,5.3c0,0.3,0,0.7-0.1,1L810.1,605z M817.7,603.5c0-1.3-0.7-3.3-3.6-3.3
			c-2-0.1-3.7,1.3-4,3.3H817.7z"/>
		<path class="st11" d="M835.2,604.2L835.2,604.2c0.4-0.4,0.9-0.9,1.3-1.3l4.2-3.8h3.1l-5.5,4.6l6.3,6.6h-3.2l-4.9-5.4l-1.3,1.1v4.2
			h-2.6v-16.4h2.6V604.2z"/>
		<path class="st11" d="M856.3,610.2l-0.2-1.4H856c-1.2,1.1-2.7,1.7-4.4,1.7c-2.9,0-4.3-1.6-4.3-3.2c0-2.7,3.1-4.2,8.6-4.2v-0.2
			c0-0.9-0.3-2.6-3.3-2.6c-1.3,0-2.6,0.3-3.7,0.8l-0.6-1.3c1.5-0.7,3.1-1,4.7-1c4.4,0,5.4,2.3,5.4,4.6v4.2c0,0.9,0.1,1.8,0.2,2.7
			L856.3,610.2z M855.9,604.5c-2.8,0-6,0.3-6,2.5c0,1.3,1.1,1.9,2.4,1.9c1.4,0.1,2.8-0.6,3.5-1.9c0.1-0.2,0.1-0.4,0.1-0.6
			L855.9,604.5z"/>
		<path class="st11" d="M871.8,602.1c0-1,0-2-0.1-3h2.3l0.1,1.8h0.1c1.1-1.4,2.8-2.1,4.5-2c1.7-0.1,3.2,0.8,4,2.2h0.1
			c0.4-0.6,1-1.1,1.6-1.5c0.9-0.6,2-0.8,3.1-0.8c2.5-0.1,4.6,1.7,4.7,4.2c0,0.2,0,0.4,0,0.7v6.6h-2.5V604c0-2.2-1-3.5-3.1-3.5
			c-1.3,0-2.5,0.7-3.1,1.8c-0.1,0.3-0.2,0.7-0.2,1v6.9h-2.5v-6.7c0.1-1.5-1-2.8-2.5-3c-0.2,0-0.4,0-0.5,0c-1.4,0-2.6,0.8-3.2,2
			c-0.1,0.3-0.2,0.7-0.2,1v6.7h-2.5L871.8,602.1z"/>
		<path class="st11" d="M905.8,610.2l-0.2-1.4h-0.1c-1.2,1.1-2.7,1.7-4.4,1.7c-2.9,0-4.3-1.6-4.3-3.2c0-2.7,3.1-4.2,8.6-4.2v-0.2
			c0-0.9-0.3-2.6-3.2-2.6c-1.3,0-2.6,0.3-3.7,0.8l-0.6-1.3c1.5-0.7,3.1-1,4.7-1c4.3,0,5.4,2.3,5.4,4.6v4.2c0,0.9,0.1,1.8,0.2,2.7
			L905.8,610.2z M905.3,604.5c-2.8,0-6,0.3-6,2.5c0,1.3,1.1,1.9,2.4,1.9c1.4,0.1,2.8-0.6,3.5-1.9c0.1-0.2,0.1-0.4,0.1-0.6
			L905.3,604.5z"/>
		<path class="st11" d="M923.7,609.8c-1.3,0.4-2.7,0.7-4.1,0.7c-4.3,0-7.1-2.3-7.1-5.7s3-6,7.7-6c1.2,0,2.4,0.2,3.6,0.6l-0.6,1.6
			c-1-0.4-2-0.6-3-0.5c-3.3,0-5,1.9-5,4.2c0,2.6,2.1,4.2,5,4.2c1.1,0,2.2-0.2,3.2-0.5L923.7,609.8z"/>
		<path class="st11" d="M928.2,593.8h2.6v7h0.1c0.5-0.6,1.1-1.1,1.9-1.4c0.8-0.4,1.7-0.6,2.7-0.6c1.9,0,5,0.9,5,4.8v6.7h-2.6v-6.4
			c0.2-1.6-1-3.1-2.7-3.3c0,0,0,0,0,0c-0.2,0-0.4,0-0.6,0c-1.5-0.1-2.8,0.7-3.5,2c-0.1,0.3-0.2,0.7-0.2,1v6.8h-2.6V593.8z"/>
		<path class="st11" d="M948.9,595.9c0,0.7-0.6,1.3-1.7,1.3c-0.8,0.1-1.5-0.5-1.6-1.2l0,0c0-0.7,0.7-1.3,1.6-1.3
			S948.9,595.2,948.9,595.9z M946,610.2V599h2.6v11.2H946z"/>
		<path class="st11" d="M957.5,595.8v3.2h3.7v1.5h-3.7v6c0,1.4,0.5,2.2,2,2.2c0.5,0,1,0,1.5-0.2l0.1,1.5c-0.8,0.2-1.5,0.3-2.3,0.3
			c-1,0.1-2-0.2-2.8-0.9c-0.7-0.8-1.1-1.8-1-2.9v-6.1h-2.2V599h2.2v-2.7L957.5,595.8z"/>
		<path class="st11" d="M978.3,604.5c0,4.1-3.7,6-7.1,6c-3.9,0-6.8-2.2-6.8-5.8c0-3.7,3.1-5.9,7.1-5.9S978.3,601.1,978.3,604.5z
			 M967,604.7c-0.1,2.3,1.7,4.2,4.1,4.3c0,0,0,0,0,0h0.3c2.3,0.1,4.3-1.8,4.3-4.1c0,0,0,0,0,0v-0.3c0-2.4-2-4.3-4.4-4.3
			S967,602.3,967,604.7L967,604.7z"/>
		<path class="st11" d="M991,610.2l-0.2-1.4h-0.1c-1.2,1.1-2.7,1.7-4.4,1.7c-2.9,0-4.3-1.6-4.3-3.2c0-2.7,3.1-4.2,8.6-4.2v-0.2
			c0-0.9-0.3-2.6-3.3-2.6c-1.3,0-2.6,0.3-3.7,0.8l-0.6-1.3c1.5-0.7,3.1-1,4.7-1c4.3,0,5.4,2.3,5.4,4.6v4.2c0,0.9,0.1,1.8,0.2,2.7
			L991,610.2z M990.6,604.5c-2.8,0-6,0.3-6,2.5c0,1.3,1.1,1.9,2.4,1.9c1.4,0.1,2.8-0.6,3.5-1.9c0.1-0.2,0.1-0.4,0.1-0.6L990.6,604.5
			z"/>
		<path class="st11" d="M998.8,602.1c0-1,0-2-0.1-3h2.3l0.1,1.8h0.1c1.1-1.4,2.9-2.2,4.7-2.1c2,0,5,0.9,5,4.8v6.7h-2.6v-6.4
			c0.2-1.6-1-3.1-2.6-3.3c0,0,0,0,0,0c-0.2,0-0.4,0-0.6,0c-1.5-0.1-2.9,0.8-3.5,2.1c-0.1,0.3-0.2,0.6-0.2,0.9v6.7h-2.6L998.8,602.1z
			"/>
		<path class="st11" d="M1016.2,608.2c1.1,0.5,2.2,0.8,3.4,0.8c1.9,0,2.8-0.7,2.8-1.7s-0.8-1.5-2.7-2c-2.6-0.7-3.8-1.8-3.8-3.2
			c0-1.8,1.9-3.3,4.9-3.3c1.2,0,2.4,0.2,3.5,0.7l-0.7,1.5c-0.9-0.4-1.9-0.7-2.9-0.7c-1.5,0-2.4,0.7-2.4,1.5s0.8,1.3,2.7,1.9
			c2.5,0.7,3.7,1.7,3.7,3.4c0,2-2,3.4-5.3,3.4c-1.4,0-2.7-0.2-4-0.8L1016.2,608.2z"/>
		<path class="st11" d="M1029.4,608.2c1.1,0.5,2.2,0.8,3.4,0.8c1.9,0,2.8-0.7,2.8-1.7s-0.8-1.5-2.7-2c-2.6-0.7-3.8-1.8-3.8-3.2
			c0-1.8,1.9-3.3,4.9-3.3c1.2,0,2.4,0.2,3.5,0.7l-0.7,1.5c-0.9-0.4-1.9-0.7-2.9-0.7c-1.5,0-2.4,0.7-2.4,1.5s0.8,1.3,2.7,1.9
			c2.5,0.7,3.7,1.7,3.7,3.4c0,2-2,3.4-5.3,3.4c-1.4,0-2.7-0.2-4-0.8L1029.4,608.2z"/>
		
			<image style="overflow:visible;opacity:0.7;enable-background:new    ;" width="76" height="81" xlink:href="23E8574B.png"  transform="matrix(1 0 0 1 517 493)">
		</image>
		<polygon class="st14" points="561.8,528.3 550.9,528.3 550.9,535.8 563,535.8 563,538 547.3,538 547.3,517.4 562.5,517.4 
			562.5,519.6 550.9,519.6 550.9,526.1 561.7,526.1 		"/>
		<path class="st14" d="M570.5,525.8c0-1.8-0.1-3.1-0.2-4.5h3.3l0.2,2.7h0.1c1.5-2.1,4-3.2,6.6-3.1c2.4-0.1,4.7,1.2,5.9,3.4h0.1
			c0.6-0.9,1.4-1.6,2.3-2.2c1.4-0.8,3-1.2,4.6-1.2c2.8,0,6.9,1.4,6.9,7.2v9.9h-3.7v-9.5c0-3.2-1.5-5.2-4.5-5.2c-1.9,0-3.7,1-4.5,2.7
			c-0.2,0.5-0.3,1-0.3,1.5V538h-3.7v-10c0-2.7-1.5-4.6-4.3-4.6c-2,0-3.9,1.2-4.7,3c-0.2,0.5-0.3,1-0.3,1.5V538h-3.7V525.8z"/>
		<path class="st14" d="M610.6,529.6c0.1,4.5,3.3,6.3,7.1,6.3c2,0.1,3.9-0.3,5.8-0.9l0.7,2.4c-2.2,0.8-4.6,1.2-6.9,1.2
			c-6.4,0-10.2-3.7-10.2-9.2s3.7-9.8,9.8-9.8c6.8,0,8.6,5.2,8.6,8.6c0,0.5,0,1-0.1,1.6H610.6z M621.7,527.2c0-2.1-1-5.4-5.2-5.4
			c-3,0-5.6,2.3-5.8,5.4H621.7z"/>
		<path class="st14" d="M632.2,526.7c0-1.9-0.1-3.6-0.2-5.1h3.3l0.1,3.2h0.1c0.8-2,3.1-3.5,5.8-3.6c0.4,0,0.7,0,1,0.1v2.8
			c-0.4-0.1-0.9-0.1-1.3-0.1c-2.4-0.1-4.5,1.5-5.1,3.8c-0.1,0.5-0.2,0.9-0.2,1.4v8.7h-3.8V526.7z"/>
		<path class="st14" d="M666,520.5c-0.1,1.3-0.2,2.8-0.2,5.1v10.8c0,4.3-1,6.8-3,8.5c-2.2,1.6-4.9,2.3-7.6,2.2
			c-2.4,0.1-4.8-0.5-6.9-1.5l1-2.6c1.9,1,4,1.5,6.1,1.4c3.9,0,6.7-1.8,6.7-6.5v-2.1H662c-1.5,2.1-4,3.3-6.6,3.1
			c-4.8,0.1-8.8-3.7-8.9-8.6c0-0.1,0-0.3,0-0.4c0-6.2,4.6-9.8,9.4-9.8c2.6-0.2,5.1,1,6.5,3.2h0.1l0.2-2.8L666,520.5z M662.1,527.8
			c0-0.5-0.1-1-0.2-1.5c-0.8-2.2-3-3.7-5.3-3.6c-3.6,0-6.2,2.7-6.2,7c0,3.6,2.1,6.7,6.2,6.7c2.3,0.1,4.4-1.3,5.3-3.5
			c0.2-0.6,0.3-1.2,0.3-1.8L662.1,527.8z"/>
		<path class="st14" d="M676.3,530.7c0.1,3.9,3.3,5.5,7.1,5.5c2,0,3.9-0.2,5.8-0.8l0.7,2.1c-2.2,0.7-4.6,1-6.9,1
			c-6.4,0-10.2-3.3-10.2-8s3.7-8.6,9.8-8.6c6.8,0,8.6,4.6,8.6,7.5c0,0.5,0,0.9-0.1,1.4L676.3,530.7z M687.4,528.6
			c0-1.8-1-4.7-5.2-4.7c-2.9-0.2-5.4,1.9-5.8,4.7H687.4z"/>
		<path class="st14" d="M710.6,524l4.5,9.5c0.5,1.1,1,2.3,1.3,3.3h0.1c0.4-0.9,0.8-2.2,1.3-3.3l4.1-9.5h4l-5.7,11.5
			c-2.7,5.5-4.5,8.4-7.1,10.1c-1.4,1-3,1.6-4.6,1.9l-0.9-2.5c1.2-0.3,2.3-0.8,3.3-1.4c1.3-0.8,2.4-1.9,3.2-3.3
			c0.2-0.2,0.3-0.5,0.3-0.7c0-0.3-0.1-0.5-0.3-0.8l-7.7-14.8H710.6z"/>
		<path class="st14" d="M750,530c0,5.9-5.3,8.5-10.3,8.5c-5.6,0-10-3.2-10-8.2c0-5.4,4.6-8.4,10.3-8.4C746,521.8,750,525.1,750,530z
			 M733.5,530.2c0,3.5,2.9,6.3,6.4,6.3c3.5,0,6.3-2.9,6.3-6.4c-0.2-3.5-3.1-6.2-6.6-6C736.2,524.2,733.6,526.9,733.5,530.2
			L733.5,530.2z"/>
		<path class="st14" d="M774.3,533.7c0,1.7,0.1,3.2,0.2,4.5h-3.3l-0.2-2.7h-0.1c-1.7,2-4.2,3.1-6.9,3c-3.3,0-7.2-1.4-7.2-7.1v-9.5
			h3.8v9c0,3.1,1.2,5.2,4.7,5.2c2,0.1,3.9-1,5-2.7c0.2-0.5,0.3-1,0.3-1.5v-10h3.8L774.3,533.7z"/>
		<path class="st14" d="M782.8,526.4c0-2-0.1-3.7-0.2-5.3h3.3l0.2,3.3h0.1c1-2.3,3.3-3.7,5.8-3.7c0.3,0,0.7,0,1,0.1v2.9
			c-0.4-0.1-0.9-0.1-1.3-0.1c-2.4-0.1-4.5,1.6-5.1,3.9c-0.1,0.5-0.2,0.9-0.2,1.4v9h-3.8L782.8,526.4z"/>
		<path class="st15" d="M813.6,522.3v20.8h-7v-20.8H813.6z"/>
		<path class="st14" d="M840.5,517.2v17.3c0,1.3,0.1,2.7,0.2,3.7h-3.4l-0.2-2.5h-0.1c-1.4,1.8-4.1,2.9-7.1,2.8c-5,0-8.9-2.9-8.9-7.2
			c0-4.8,4.3-7.7,9.3-7.7c2.3-0.2,4.6,0.6,6.3,2.2h0.1v-8.5H840.5z M836.8,529.7c0-0.4,0-0.8-0.2-1.1c-0.6-1.8-2.8-3-5.5-3
			c-3.9,0-6.3,2.3-6.3,5.5c0,2.9,2.1,5.3,6.2,5.3c2.7,0,5-1.3,5.5-3.1c0.1-0.4,0.2-0.7,0.2-1.1L836.8,529.7z"/>
		<path class="st14" d="M851.1,530.7c0.1,3.9,3.3,5.5,7.1,5.5c2,0,3.9-0.2,5.8-0.8l0.7,2.1c-2.2,0.7-4.6,1-6.9,1
			c-6.4,0-10.2-3.3-10.2-8s3.7-8.6,9.8-8.6c6.8,0,8.6,4.6,8.6,7.5c0,0.5,0,0.9-0.1,1.4L851.1,530.7z M862.2,528.6
			c0-1.8-1-4.7-5.2-4.7c-2.9-0.2-5.4,1.9-5.8,4.7H862.2z"/>
		<path class="st14" d="M891.5,528.8c0,6.7-5.3,9.7-10.3,9.7c-5.6,0-10-3.6-10-9.3c0-6.1,4.6-9.6,10.3-9.6
			C887.5,519.5,891.5,523.3,891.5,528.8z M875,529c0,4,2.6,7,6.3,7s6.3-3,6.3-7.1c0-3.1-1.8-7-6.3-7S875,525.6,875,529z"/>
		<path class="st14" d="M898.4,511.5h3.8V538h-3.8V511.5z"/>
		<path class="st14" d="M929.5,528.8c0,6.7-5.3,9.7-10.3,9.7c-5.6,0-10-3.6-10-9.3c0-6.1,4.6-9.6,10.3-9.6
			C925.5,519.5,929.5,523.3,929.5,528.8z M913.1,529c0,4,2.6,7,6.3,7s6.3-3,6.3-7.1c0-3.1-1.8-7-6.3-7S913.1,525.6,913.1,529
			L913.1,529z"/>
		<path class="st14" d="M953.3,522.5c-0.1,1.1-0.2,2.3-0.2,3.4v7.3c0,2.9-1,4.7-3,5.8c-2.4,1.1-5,1.6-7.6,1.5c-2.4,0.1-4.7-0.3-7-1
			l1-1.8c2,0.7,4,1,6.1,1c3.9,0,6.7-1.2,6.7-4.4v-1.4h-0.1c-1.8,1.5-4.2,2.3-6.6,2.1c-5.2,0-8.9-2.7-8.9-6.2c0-4.2,4.6-6.7,9.4-6.7
			c2.7-0.1,5.2,0.8,6.5,2.2h0.1l0.2-1.9L953.3,522.5z M949.4,527.4c0-0.3-0.1-0.7-0.2-1c-0.7-1.4-2.8-2.4-5.3-2.4
			c-3.6,0-6.2,1.8-6.2,4.8c0,2.5,2.1,4.5,6.2,4.5c2.4,0,4.5-1,5.3-2.3c0.2-0.4,0.3-0.8,0.3-1.2V527.4z"/>
		<path class="st14" d="M962.8,520.2l4.5,8.5c0.5,1,1,2.1,1.3,3h0.1c0.4-0.8,0.8-2,1.3-3l4.1-8.5h4l-5.7,10.2c-2.7,5-4.5,7.5-7.1,9
			c-1.4,0.9-3,1.4-4.6,1.7l-0.9-2.2c1.2-0.3,2.3-0.7,3.3-1.3c1.3-0.7,2.3-1.7,3.2-2.9c0.2-0.2,0.3-0.4,0.3-0.6
			c0-0.3-0.1-0.5-0.3-0.7l-7.6-13.3L962.8,520.2z"/>
		
			<image style="overflow:visible;opacity:0.5;enable-background:new    ;" width="362" height="411" xlink:href="23E8574D.png"  transform="matrix(1 0 0 1 211 199)">
		</image>
		<path class="st16" d="M355.8,223h71.5c63.4,0,114.8,51.4,114.8,114.8v121.4c0,63.4-51.4,114.8-114.8,114.8h-71.5
			C292.4,574,241,522.6,241,459.2V337.8C241,274.4,292.4,223,355.8,223z"/>
		<path class="st17" d="M406.1,300.2c0,10.3-7.2,18.8-19.2,18.8c-10.9,0-18.2-8.5-18.2-18.8c-0.2-10.1,7.8-18.5,17.9-18.8
			c0,0,0,0,0,0h0.9C398.7,281.5,406,289.7,406.1,300.2z M372.4,513V347.1h30V513H372.4z"/>
		
			<image style="overflow:visible;enable-background:new    ;" width="303" height="133" xlink:href="23E8574F.png"  transform="matrix(1 0 0 1 553 744)">
		</image>
		<g>
			
				<image style="overflow:visible;opacity:0.7;" width="303" height="133" xlink:href="23E8574C.png"  transform="matrix(1 0 0 1 560 738)">
			</image>
			<g>
				
					<linearGradient id="SVGID_6_" gradientUnits="userSpaceOnUse" x1="583" y1="275.13" x2="826" y2="275.13" gradientTransform="matrix(1 0 0 -1 0 1080)">
					<stop  offset="0" style="stop-color:#4E55A5"/>
					<stop  offset="0" style="stop-color:#3B64AA"/>
					<stop  offset="9.000000e-02" style="stop-color:#47A6DA"/>
					<stop  offset="0.17" style="stop-color:#80BFE5"/>
					<stop  offset="0.33" style="stop-color:#0E9ED9"/>
					<stop  offset="0.52" style="stop-color:#4E90CD"/>
					<stop  offset="0.57" style="stop-color:#1E9CD7"/>
					<stop  offset="0.69" style="stop-color:#0075BE"/>
					<stop  offset="0.99" style="stop-color:#005B97"/>
				</linearGradient>
				<path class="st18" d="M616.7,768.9h175.7c18.6,0,33.7,15.1,33.7,33.7v4.7c0,18.6-15.1,33.7-33.7,33.7H616.7
					c-18.6,0-33.7-15.1-33.7-33.7v-4.7C583,783.9,598.1,768.9,616.7,768.9z"/>
			</g>
		</g>
		<path class="st19" d="M657.5,813.2c1.8,0.9,3.9,1.4,6,1.4c3.4,0,5.4-1.5,5.4-3.8c0-2.1-1.4-3.3-4.9-4.4c-4.2-1.3-6.8-3.2-6.8-6.3
			c0-3.5,3.3-6,8.4-6c2-0.1,3.9,0.3,5.7,1.1l-0.9,2.4c-1.5-0.7-3.2-1.1-4.9-1.1c-3.5,0-4.9,1.8-4.9,3.3c0,2.1,1.6,3.1,5.1,4.3
			c4.4,1.5,6.6,3.3,6.6,6.6c0,3.4-2.9,6.4-9,6.4c-2.3,0-4.5-0.5-6.6-1.5L657.5,813.2z"/>
		<path class="st19" d="M683.6,796.8h-7.9v-2.4h19.1v2.4H687v19.9h-3.3L683.6,796.8z"/>
		<path class="st19" d="M700.9,809.7l-2.7,7h-3.5l8.8-22.3h4l8.8,22.3h-3.6l-2.8-7H700.9z M709.4,807.5l-2.6-6.5
			c-0.6-1.5-0.9-2.8-1.3-4.1h-0.1c-0.4,1.3-0.8,2.7-1.3,4l-2.5,6.5L709.4,807.5z"/>
		<path class="st19" d="M722.1,794.7c2.1-0.3,4.3-0.5,6.4-0.5c3.5,0,5.9,0.6,7.5,1.8c1.3,1,2,2.6,2,4.2c0,2.9-2.2,4.9-4.9,5.7v0.1
			c2,0.6,3.2,2.2,3.8,4.5c0.5,2.1,1.1,4.1,2,6.1h-3.5c-0.8-1.7-1.3-3.5-1.7-5.3c-0.8-3.1-2.2-4.2-5.2-4.3h-3.2v9.7h-3.3V794.7z
			 M725.4,804.9h3.4c3.6,0,5.8-1.7,5.8-4.2c0-2.9-2.4-4.2-5.9-4.2c-1.1,0-2.2,0.1-3.3,0.3V804.9z"/>
		<path class="st19" d="M749.9,796.8H742v-2.4h19.1v2.4h-7.9v19.9h-3.3L749.9,796.8z"/>
		
			<image style="overflow:visible;opacity:0.8;enable-background:new    ;" width="770" height="383" xlink:href="23E85744.png"  transform="matrix(1 0 0 1 1179 663)">
		</image>
		
			<image style="overflow:visible;enable-background:new    ;" width="726" height="339" xlink:href="23E85746.png"  transform="matrix(1 0 0 1 1201 679)">
		</image>
		<g>
			
				<image style="overflow:visible;opacity:0.75;" width="1086" height="699" xlink:href="23E85742.png"  transform="matrix(1 0 0 1 1021 499)">
			</image>
			<g>
				
					<linearGradient id="SVGID_7_" gradientUnits="userSpaceOnUse" x1="1564" y1="137" x2="1564" y2="326" gradientTransform="matrix(1 0 0 -1 0 1080)">
					<stop  offset="0" style="stop-color:#CCE0F4"/>
					<stop  offset="0" style="stop-color:#C3DAF0"/>
					<stop  offset="0" style="stop-color:#A9C9E4"/>
					<stop  offset="0" style="stop-color:#80AED1"/>
					<stop  offset="0" style="stop-color:#4689B7"/>
					<stop  offset="0" style="stop-color:#005B97"/>
					<stop  offset="0" style="stop-color:#231F20"/>
					<stop  offset="0.55" style="stop-color:#5F6062"/>
					<stop  offset="0.75" style="stop-color:#8A8C8E"/>
					<stop  offset="0.99" style="stop-color:#F3F095;stop-opacity:0.8"/>
				</linearGradient>
				<path class="st20" d="M1311.1,754h505.8c19.4,0,35.1,15.7,35.1,35.1v118.8c0,19.4-15.7,35.1-35.1,35.1h-505.8
					c-19.4,0-35.1-15.7-35.1-35.1V789.1C1276,769.7,1291.7,754,1311.1,754z"/>
			</g>
		</g>
		<rect x="1465" y="655" class="st21" width="189" height="99"/>
		<rect x="1465" y="655" class="st11" width="189" height="36"/>
		<rect x="1546" y="664" class="st22" width="27" height="18"/>
		<g class="st23">
			
				<image style="overflow:visible;enable-background:new    ;" width="416" height="411" xlink:href="30949D44.png"  transform="matrix(1 0 0 1 1352 359)">
			</image>
			
				<image style="overflow:visible;enable-background:new    ;" width="265" height="261" xlink:href="30949D43.png"  transform="matrix(1 0 0 1 1427 434)">
			</image>
		</g>
		
			<linearGradient id="SVGID_8_" gradientUnits="userSpaceOnUse" x1="1564" y1="488.0018" x2="1564" y2="658.0018" gradientTransform="matrix(1 0 0 -1 0 1080)">
			<stop  offset="0" style="stop-color:#CCE0F4"/>
			<stop  offset="0" style="stop-color:#C3DAF0"/>
			<stop  offset="0" style="stop-color:#A9C9E4"/>
			<stop  offset="0" style="stop-color:#80AED1"/>
			<stop  offset="0" style="stop-color:#4689B7"/>
			<stop  offset="0" style="stop-color:#005B97"/>
			<stop  offset="0" style="stop-color:#7E7730"/>
			<stop  offset="0.4" style="stop-color:#FBED24"/>
			<stop  offset="0.67" style="stop-color:#EEEB62"/>
			<stop  offset="0.99" style="stop-color:#FFFFFF;stop-opacity:0.8"/>
		</linearGradient>
		<path class="st24" d="M1649,507c0,46.9-38.1,85-85,85c-46.9,0-85-38.1-85-85c0-46.9,38.1-85,85-85c22.5,0,44.2,9,60.1,24.9
			C1640.1,462.8,1649,484.4,1649,507z"/>
		
			<linearGradient id="SVGID_9_" gradientUnits="userSpaceOnUse" x1="1924" y1="137" x2="1924" y2="137" gradientTransform="matrix(1 0 0 -1 0 1080)">
			<stop  offset="0" style="stop-color:#CCE0F4"/>
			<stop  offset="4.000000e-02" style="stop-color:#C3DCF2"/>
			<stop  offset="9.000000e-02" style="stop-color:#A9D1ED"/>
			<stop  offset="0.17" style="stop-color:#80BFE5"/>
			<stop  offset="0.26" style="stop-color:#47A6DA"/>
			<stop  offset="0.33" style="stop-color:#1590D0"/>
			<stop  offset="0.57" style="stop-color:#1E9CD7"/>
			<stop  offset="0.69" style="stop-color:#0075BE"/>
			<stop  offset="0.99" style="stop-color:#005B97"/>
		</linearGradient>
		<path class="st25" d="M1924,943"/>
		
			<linearGradient id="SVGID_10_" gradientUnits="userSpaceOnUse" x1="1533.5" y1="583.55" x2="1533.5" y2="568.55" gradientTransform="matrix(1 0 0 -1 0 1080)">
			<stop  offset="0" style="stop-color:#CCE0F4"/>
			<stop  offset="0" style="stop-color:#C3DAF0"/>
			<stop  offset="0" style="stop-color:#A9C9E4"/>
			<stop  offset="0" style="stop-color:#80AED1"/>
			<stop  offset="0" style="stop-color:#4689B7"/>
			<stop  offset="0" style="stop-color:#EDF2C8"/>
			<stop  offset="0.11" style="stop-color:#87C658"/>
			<stop  offset="0.25" style="stop-color:#6DBE45;stop-opacity:0.8"/>
			<stop  offset="0.34" style="stop-color:#129F49"/>
			<stop  offset="0.67" style="stop-color:#5ABA47"/>
		</linearGradient>
		<path class="st26" d="M1533,496.5h1c3.9,0,7,3.1,7,7v1c0,3.9-3.1,7-7,7h-1c-3.9,0-7-3.1-7-7v-1
			C1526,499.6,1529.1,496.5,1533,496.5z"/>
		<g class="st23">
			<g>
				<g>
					<g>
						<defs>
							<path id="SVGID_11_" d="M1492.7,473.9l1.4-2.6c23.2,19.5,66.2,43.1,95.8,52.6l-1.4,2.6C1558.8,517,1515.9,493.4,1492.7,473.9
								z"/>
						</defs>
						<clipPath id="SVGID_12_">
							<use xlink:href="#SVGID_11_"  style="overflow:visible;"/>
						</clipPath>
						<g class="st27">
							<g>
								<path class="st28" d="M1492.7,473.9l1.4-2.6l1.1,1l-1.4,2.6L1492.7,473.9"/>
								<path class="st29" d="M1493.8,474.8l1.4-2.6c0.7,0.6,1.4,1.1,2.1,1.7l-1.4,2.6C1495.2,475.9,1494.5,475.4,1493.8,474.8"/>
								<path class="st30" d="M1495.9,476.5l1.4-2.6c0.7,0.6,1.4,1.1,2.1,1.7l-1.4,2.6L1495.9,476.5"/>
								<path class="st31" d="M1498.1,478.2l1.4-2.6c0.7,0.6,1.5,1.1,2.2,1.7l-1.4,2.6L1498.1,478.2"/>
								<path class="st21" d="M1500.3,479.9l1.4-2.6l1.9,1.4l-1.4,2.6L1500.3,479.9"/>
								<path class="st32" d="M1502.2,481.3l1.4-2.6l2,1.4l-1.4,2.6L1502.2,481.3"/>
								<path class="st33" d="M1504.1,482.7l1.4-2.6l1.5,1.1l-1.4,2.6L1504.1,482.7"/>
								<path class="st34" d="M1505.6,483.8l1.4-2.6l1.4,1l-1.4,2.6L1505.6,483.8"/>
								<path class="st35" d="M1507.1,484.8l1.4-2.6l1.5,1l-1.4,2.6L1507.1,484.8"/>
								<path class="st36" d="M1508.5,485.8l1.4-2.6l1.1,0.8l-1.4,2.6L1508.5,485.8"/>
								<path class="st36" d="M1509.6,486.5l1.4-2.5l1,0.7l-1.4,2.6L1509.6,486.5"/>
								<path class="st36" d="M1510.7,487.3l1.4-2.6l1.1,0.7l-1.4,2.6L1510.7,487.3"/>
								<path class="st36" d="M1511.7,488l1.4-2.6l1.1,0.7l-1.4,2.6L1511.7,488"/>
								<path class="st36" d="M1512.8,488.7l1.4-2.6l1,0.6l-1.4,2.6L1512.8,488.7"/>
								<path class="st36" d="M1513.8,489.3l1.4-2.6l0.9,0.6l-1.4,2.6L1513.8,489.3"/>
								<path class="st36" d="M1514.6,489.9l1.4-2.6l0.9,0.6l-1.4,2.6L1514.6,489.9"/>
								<path class="st36" d="M1515.5,490.4l1.4-2.6l0.9,0.6l-1.4,2.6L1515.5,490.4"/>
								<path class="st36" d="M1516.3,491l1.4-2.6l0.9,0.6l-1.4,2.6L1516.3,491"/>
								<path class="st36" d="M1517.2,491.5l1.4-2.6l0.9,0.6l-1.4,2.6L1517.2,491.5"/>
								<path class="st36" d="M1518.1,492.1l1.4-2.6l0.9,0.5l-1.4,2.6L1518.1,492.1"/>
								<path class="st36" d="M1519,492.6l1.4-2.6l0.9,0.5l-1.4,2.6L1519,492.6"/>
								<path class="st36" d="M1519.8,493.2l1.4-2.6l0.9,0.5l-1.4,2.6L1519.8,493.2"/>
								<path class="st36" d="M1520.7,493.8l1.4-2.6l0.9,0.5l-1.4,2.6L1520.7,493.8"/>
								<path class="st36" d="M1521.6,494.3l1.4-2.6l0.9,0.5l-1.4,2.6L1521.6,494.3"/>
								<path class="st36" d="M1522.5,494.8l1.4-2.6l1.1,0.7l-1.4,2.6L1522.5,494.8"/>
								<path class="st36" d="M1523.6,495.5l1.4-2.6l1.3,0.8l-1.4,2.6L1523.6,495.5"/>
								<path class="st36" d="M1524.8,496.3l1.4-2.6l1.3,0.8l-1.4,2.6L1524.8,496.3"/>
								<path class="st36" d="M1526.1,497l1.4-2.6l1.3,0.8l-1.4,2.6L1526.1,497"/>
								<path class="st36" d="M1527.4,497.8l1.4-2.6c1.6,1,3.3,1.9,4.9,2.8l-1.4,2.6C1530.6,499.7,1529,498.8,1527.4,497.8"/>
								<path class="st36" d="M1532.3,500.6l1.4-2.6l0.9,0.5l-1.4,2.6L1532.3,500.6"/>
								<path class="st36" d="M1533.2,501.1l1.4-2.6l1.8,1l-1.4,2.6L1533.2,501.1"/>
								<path class="st36" d="M1535,502.2l1.4-2.6l1.8,1l-1.4,2.6L1535,502.2"/>
								<path class="st36" d="M1536.8,503.2l1.4-2.6l1.6,0.9l-1.4,2.6L1536.8,503.2"/>
								<path class="st36" d="M1538.4,504.1l1.4-2.6l1,0.5l-1.4,2.6L1538.4,504.1"/>
								<path class="st36" d="M1539.4,504.6l1.4-2.6l1,0.5l-1.4,2.6L1539.4,504.6"/>
								<path class="st36" d="M1540.4,505.1l1.4-2.6l1,0.5l-1.4,2.6L1540.4,505.1"/>
								<path class="st36" d="M1541.4,505.7l1.4-2.6l1,0.5l-1.4,2.6L1541.4,505.7"/>
								<path class="st36" d="M1542.3,506.2l1.4-2.6l1,0.5l-1.4,2.6L1542.3,506.2"/>
								<path class="st36" d="M1543.3,506.7l1.4-2.6l0.8,0.5l-1.4,2.6L1543.3,506.7"/>
								<path class="st36" d="M1544.2,507.2l1.4-2.6l0.8,0.4l-1.4,2.6C1544.7,507.5,1544.5,507.3,1544.2,507.2"/>
								<path class="st36" d="M1545,507.6l1.4-2.6l0.8,0.4l-1.4,2.6L1545,507.6"/>
								<path class="st36" d="M1545.9,508l1.4-2.6l0.8,0.4l-1.4,2.6L1545.9,508"/>
								<path class="st36" d="M1546.7,508.5l1.4-2.6l0.8,0.4l-1.4,2.6L1546.7,508.5"/>
								<path class="st36" d="M1547.6,508.9l1.4-2.6l0.8,0.4l-1.4,2.6L1547.6,508.9"/>
								<path class="st36" d="M1548.4,509.4l1.4-2.6l0.9,0.5l-1.4,2.6L1548.4,509.4"/>
								<path class="st36" d="M1549.3,509.8l1.4-2.6l0.9,0.5l-1.4,2.6L1549.3,509.8"/>
								<path class="st36" d="M1550.3,510.3l1.4-2.6l1,0.5l-1.4,2.6L1550.3,510.3"/>
								<path class="st36" d="M1551.2,510.8l1.4-2.6l0.9,0.5l-1.4,2.6L1551.2,510.8"/>
								<path class="st36" d="M1552.2,511.3l1.4-2.6l1,0.5l-1.4,2.6L1552.2,511.3"/>
								<path class="st36" d="M1553.1,511.7l1.4-2.6l1,0.5l-1.4,2.6L1553.1,511.7"/>
								<path class="st35" d="M1554.1,512.2l1.4-2.6l1.2,0.6l-1.4,2.6L1554.1,512.2"/>
								<path class="st34" d="M1555.4,512.8l1.4-2.6l1.2,0.6l-1.4,2.6L1555.4,512.8"/>
								<path class="st33" d="M1556.6,513.4l1.4-2.6l1.2,0.6l-1.4,2.6L1556.6,513.4"/>
								<path class="st32" d="M1557.8,514l1.4-2.6l1.3,0.6l-1.4,2.6L1557.8,514"/>
								<path class="st21" d="M1559.1,514.6l1.4-2.6l1.7,0.8l-1.4,2.6L1559.1,514.6"/>
								<path class="st31" d="M1560.8,515.4l1.4-2.6l1.7,0.8l-1.4,2.6L1560.8,515.4"/>
								<path class="st30" d="M1562.5,516.2l1.4-2.6l1.7,0.8l-1.4,2.6L1562.5,516.2"/>
								<path class="st29" d="M1564.2,517l1.4-2.6l2.3,1l-1.4,2.6L1564.2,517"/>
								<path class="st28" d="M1566.5,518l1.4-2.6l2.2,1l-1.4,2.6L1566.5,518"/>
								<path class="st37" d="M1568.7,519l1.4-2.6l2.5,1l-1.4,2.6L1568.7,519"/>
								<path class="st38" d="M1571.2,520l1.4-2.6l2.5,1l-1.4,2.6L1571.2,520"/>
								<path class="st39" d="M1573.7,521l1.4-2.6c0.9,0.4,1.7,0.7,2.6,1l-1.4,2.6C1575.5,521.7,1574.6,521.4,1573.7,521"/>
								<path class="st40" d="M1576.3,522.1l1.4-2.6c0.9,0.3,1.7,0.7,2.6,1l-1.4,2.6C1578.1,522.8,1577.2,522.4,1576.3,522.1"/>
								<path class="st41" d="M1578.9,523.1l1.4-2.6l2.6,1l-1.4,2.6L1578.9,523.1"/>
								<path class="st42" d="M1581.5,524.1l1.4-2.6l2.6,0.9l-1.4,2.6L1581.5,524.1"/>
								<path class="st43" d="M1584.1,525l1.4-2.6l2.6,0.9l-1.4,2.6L1584.1,525"/>
								<path class="st44" d="M1586.7,525.9l1.4-2.6l1.8,0.6l-1.4,2.6L1586.7,525.9"/>
							</g>
						</g>
					</g>
				</g>
				<polygon class="st45" points="1486.1,468.3 1487.5,465.7 1494.1,471.3 1492.7,473.9 				"/>
				<polygon class="st46" points="1588.4,526.4 1589.8,523.9 1635.7,538.5 1634.3,541.1 				"/>
				<g>
					<g>
						<defs>
							<path id="SVGID_13_" d="M1471.9,448.5l1.4-2.6c-1.9,3.5,3.1,10.5,14.1,19.9l-1.4,2.6C1475,459,1470,452,1471.9,448.5z"/>
						</defs>
						<clipPath id="SVGID_14_">
							<use xlink:href="#SVGID_13_"  style="overflow:visible;"/>
						</clipPath>
						<g class="st47">
							<g>
								<path class="st48" d="M1471.9,448.5l1.4-2.6l-0.1,0.2l-1.4,2.6L1471.9,448.5"/>
								<path class="st49" d="M1471.8,448.7l1.4-2.6c-0.2,0.5-0.3,0.9-0.3,1.4l-1.4,2.6C1471.5,449.6,1471.6,449.1,1471.8,448.7"/>
								<path class="st50" d="M1471.5,450.1l1.4-2.6c0,0.4,0.1,0.9,0.2,1.3l-1.4,2.6C1471.6,451,1471.5,450.5,1471.5,450.1"/>
								<path class="st51" d="M1471.7,451.4l1.4-2.6c0.1,0.4,0.2,0.9,0.4,1.3l-1.4,2.6C1471.9,452.2,1471.8,451.8,1471.7,451.4"/>
								<path class="st52" d="M1472.1,452.6l1.4-2.6c0.2,0.4,0.4,0.8,0.6,1.2l-1.4,2.6C1472.5,453.5,1472.3,453.1,1472.1,452.6"/>
								<path class="st53" d="M1472.7,453.9l1.4-2.6c0.2,0.4,0.4,0.8,0.7,1.2l-1.4,2.6C1473.1,454.7,1472.9,454.3,1472.7,453.9"/>
								<path class="st54" d="M1473.4,455.1l1.4-2.6c0.3,0.4,0.5,0.8,0.8,1.2l-1.4,2.6C1473.9,455.9,1473.7,455.5,1473.4,455.1"/>
								<path class="st44" d="M1474.3,456.4l1.4-2.6c0.3,0.4,0.6,0.8,0.9,1.3l-1.4,2.6C1474.9,457.2,1474.5,456.8,1474.3,456.4"/>
								<path class="st43" d="M1475.2,457.6l1.4-2.6c0.3,0.4,0.7,0.9,1.1,1.3l-1.4,2.6C1475.9,458.5,1475.5,458,1475.2,457.6"/>
								<path class="st42" d="M1476.3,458.9l1.4-2.6c0.4,0.4,0.8,0.9,1.2,1.3l-1.4,2.6C1477,459.8,1476.7,459.3,1476.3,458.9"/>
								<path class="st41" d="M1477.4,460.2l1.4-2.6c0.4,0.4,0.8,0.9,1.3,1.4l-1.4,2.6C1478.3,461.1,1477.9,460.6,1477.4,460.2"/>
								<path class="st40" d="M1478.7,461.6l1.4-2.6c0.4,0.5,0.9,0.9,1.4,1.4l-1.4,2.6L1478.7,461.6"/>
								<path class="st39" d="M1480.1,463l1.4-2.6c0.5,0.5,1,1,1.5,1.5l-1.4,2.6C1481.2,464,1480.7,463.5,1480.1,463"/>
								<path class="st38" d="M1481.7,464.4l1.4-2.6c0.5,0.5,1.1,1,1.7,1.5l-1.4,2.6C1482.8,465.4,1482.2,465,1481.7,464.4"/>
								<path class="st37" d="M1483.4,466l1.4-2.6c0.6,0.5,1.2,1.1,1.8,1.6l-1.4,2.6C1484.6,467.1,1484,466.5,1483.4,466"/>
								<path class="st28" d="M1485.2,467.6l1.4-2.6c0.3,0.3,0.6,0.5,0.9,0.7l-1.4,2.6C1485.8,468,1485.5,467.8,1485.2,467.6"/>
							</g>
						</g>
					</g>
				</g>
				<g>
					<g>
						<defs>
							<path id="SVGID_15_" d="M1661.4,540.1l-1.4,2.6l-0.1,0.2c-0.2,0.2-0.3,0.5-0.5,0.6c-2.9,2.7-11.7,1.9-25.1-2.4l1.4-2.6
								c13.4,4.3,22.2,5.1,25.1,2.4c0.2-0.2,0.4-0.4,0.5-0.6L1661.4,540.1z"/>
						</defs>
						<clipPath id="SVGID_16_">
							<use xlink:href="#SVGID_15_"  style="overflow:visible;"/>
						</clipPath>
						<g class="st55">
							<g>
								<path class="st44" d="M1634.3,541.1l1.4-2.6l0.8,0.3l-1.4,2.6L1634.3,541.1"/>
								<path class="st54" d="M1635.1,541.3l1.4-2.6l2.6,0.8l-1.4,2.6L1635.1,541.3"/>
								<path class="st53" d="M1637.7,542.1l1.4-2.6c0.9,0.3,1.8,0.5,2.6,0.7l-1.4,2.6C1639.4,542.6,1638.5,542.4,1637.7,542.1"/>
								<path class="st52" d="M1640.2,542.8l1.4-2.6c0.9,0.2,1.8,0.5,2.6,0.7l-1.4,2.6C1642,543.3,1641.1,543.1,1640.2,542.8"/>
								<path class="st51" d="M1642.9,543.5l1.4-2.6c0.9,0.2,1.8,0.4,2.7,0.6l-1.4,2.6C1644.7,543.9,1643.8,543.7,1642.9,543.5"/>
								<path class="st50" d="M1645.6,544.1l1.4-2.6c1,0.2,2,0.4,2.9,0.5l-1.4,2.6C1647.5,544.5,1646.6,544.3,1645.6,544.1"/>
								<path class="st49" d="M1648.4,544.6l1.4-2.6c1.2,0.2,2.2,0.3,3.2,0.4l-1.4,2.6C1650.6,544.9,1649.6,544.8,1648.4,544.6"/>
								<path class="st48" d="M1651.6,545l1.4-2.6c3.8,0.3,6.4-0.2,7.8-1.5c0.2-0.2,0.4-0.4,0.5-0.6l0.1-0.2l-1.4,2.6l-0.1,0.2
									c-0.2,0.2-0.3,0.5-0.5,0.6C1658,544.8,1655.4,545.3,1651.6,545"/>
							</g>
						</g>
					</g>
				</g>
				<g>
					<g>
						<defs>
							<path id="SVGID_17_" d="M1469.3,447l1.4-2.6l0.1-0.2c0.2-0.2,0.3-0.5,0.6-0.7c3-2.8,12.2-1.9,26.1,2.5l-1.4,2.6
								c-13.9-4.4-23-5.3-26.1-2.5c-0.2,0.2-0.4,0.4-0.6,0.7L1469.3,447z"/>
						</defs>
						<clipPath id="SVGID_18_">
							<use xlink:href="#SVGID_17_"  style="overflow:visible;"/>
						</clipPath>
						<g class="st56">
							<g>
								<path class="st48" d="M1469.3,447l1.4-2.6l0.1-0.2c0.2-0.2,0.3-0.5,0.6-0.7c1.4-1.3,4.1-1.8,8-1.5l-1.4,2.6
									c-3.9-0.3-6.7,0.2-8,1.5c-0.2,0.2-0.4,0.4-0.6,0.7L1469.3,447"/>
								<path class="st49" d="M1478,444.6l1.4-2.6c1,0.1,2.1,0.2,3.3,0.4l-1.4,2.6C1480.1,444.8,1479,444.7,1478,444.6"/>
								<path class="st50" d="M1481.4,445l1.4-2.6c0.9,0.1,1.9,0.3,3,0.5l-1.4,2.6C1483.4,445.3,1482.4,445.1,1481.4,445"/>
								<path class="st51" d="M1484.3,445.5l1.4-2.6c0.9,0.2,1.8,0.4,2.8,0.6l-1.4,2.6C1486.1,445.9,1485.2,445.7,1484.3,445.5"/>
								<path class="st52" d="M1487.1,446.1l1.4-2.6c0.9,0.2,1.8,0.5,2.7,0.7l-1.4,2.6C1488.9,446.6,1488,446.4,1487.1,446.1"/>
								<path class="st53" d="M1489.9,446.8l1.4-2.6c0.9,0.2,1.8,0.5,2.7,0.8l-1.4,2.6C1491.6,447.3,1490.7,447.1,1489.9,446.8"/>
								<path class="st54" d="M1492.6,447.6l1.4-2.6l2.7,0.8l-1.4,2.6L1492.6,447.6"/>
								<path class="st44" d="M1495.3,448.4l1.4-2.6l0.8,0.3l-1.4,2.6L1495.3,448.4"/>
							</g>
						</g>
					</g>
				</g>
				<g>
					<g>
						<defs>
							<path id="SVGID_19_" d="M1664,541.5l-1.4,2.6c1.9-3.5-2.8-10.6-14.6-20.6l1.4-2.6C1661.2,530.9,1666,538,1664,541.5z"/>
						</defs>
						<clipPath id="SVGID_20_">
							<use xlink:href="#SVGID_19_"  style="overflow:visible;"/>
						</clipPath>
						<g class="st57">
							<g>
								<path class="st28" d="M1648,523.5l1.4-2.6l0.9,0.8l-1.4,2.6L1648,523.5"/>
								<path class="st37" d="M1648.9,524.2l1.4-2.6l1.9,1.7l-1.4,2.6L1648.9,524.2"/>
								<path class="st38" d="M1650.8,525.9l1.4-2.6c0.6,0.5,1.2,1.1,1.7,1.6l-1.4,2.6C1651.9,527,1651.4,526.5,1650.8,525.9"/>
								<path class="st39" d="M1652.5,527.5l1.4-2.6l1.6,1.5l-1.4,2.6L1652.5,527.5"/>
								<path class="st40" d="M1654.1,529l1.4-2.6l1.4,1.5l-1.4,2.6L1654.1,529"/>
								<path class="st41" d="M1655.5,530.4l1.4-2.6c0.5,0.5,0.9,1,1.3,1.4l-1.4,2.6C1656.4,531.4,1656,530.9,1655.5,530.4"/>
								<path class="st42" d="M1656.9,531.8l1.4-2.6c0.4,0.5,0.8,0.9,1.2,1.4l-1.4,2.6C1657.7,532.8,1657.3,532.3,1656.9,531.8"/>
								<path class="st43" d="M1658.1,533.2l1.4-2.6c0.4,0.5,0.8,0.9,1.1,1.3l-1.4,2.6C1658.8,534.1,1658.5,533.7,1658.1,533.2"/>
								<path class="st44" d="M1659.2,534.5l1.4-2.6c0.4,0.5,0.7,0.9,1,1.3l-1.4,2.6C1659.9,535.4,1659.5,535,1659.2,534.5"/>
								<path class="st54" d="M1660.2,535.8l1.4-2.6c0.3,0.4,0.6,0.9,0.9,1.3l-1.4,2.6C1660.8,536.7,1660.5,536.3,1660.2,535.8"/>
								<path class="st53" d="M1661.1,537.1l1.4-2.6c0.3,0.5,0.5,0.9,0.8,1.3l-1.4,2.6C1661.6,538,1661.3,537.6,1661.1,537.1"/>
								<path class="st52" d="M1661.8,538.4l1.4-2.6c0.2,0.5,0.4,0.9,0.6,1.3l-1.4,2.6C1662.3,539.3,1662.1,538.9,1661.8,538.4"/>
								<path class="st51" d="M1662.4,539.7l1.4-2.6c0.2,0.4,0.3,0.9,0.4,1.3l-1.4,2.6C1662.8,540.6,1662.6,540.2,1662.4,539.7"/>
								<path class="st50" d="M1662.9,541l1.4-2.6c0.1,0.4,0.2,0.9,0.2,1.4l-1.4,2.6C1663,542,1663,541.5,1662.9,541"/>
								<path class="st49" d="M1663,542.4l1.4-2.6c0,0.5-0.1,1-0.3,1.5l-1.4,2.6C1662.9,543.4,1663,542.9,1663,542.4"/>
								<path class="st48" d="M1662.7,543.9l1.4-2.6c0,0.1-0.1,0.1-0.1,0.2l-1.4,2.6C1662.7,544,1662.7,544,1662.7,543.9"/>
							</g>
						</g>
					</g>
				</g>
				<polygon class="st45" points="1641.4,517.9 1642.8,515.4 1649.4,520.9 1648,523.5 				"/>
				<polygon class="st46" points="1496.1,448.6 1497.5,446.1 1543.3,460.7 1541.9,463.3 				"/>
				<path class="st22" d="M1541.9,463.3c30.8,9.8,75.4,34.3,99.5,54.6l6.6,5.5c12.9,10.8,17.3,18.3,14,21.4
					c-2.9,2.7-11.7,2.1-26-2.5l-45.9-14.7c-30.7-9.8-75.4-34.3-99.5-54.6l-6.6-5.5c-11.7-9.8-16.8-17.2-14.6-20.8
					c0.2-0.2,0.3-0.5,0.6-0.7c3-2.8,12.2-1.9,26.1,2.5L1541.9,463.3z M1639.3,517.3c-23.2-19.5-66.2-43.1-95.8-52.6l-45.9-14.7
					c-13.4-4.3-22.2-5.1-25.1-2.4c-0.2,0.2-0.4,0.4-0.5,0.6c-2.2,3.5,2.8,10.6,14,20l6.6,5.5c23.2,19.5,66.2,43.1,95.8,52.6
					l45.9,14.7c13.4,4.3,22.2,5.1,25.1,2.4c0.2-0.2,0.4-0.4,0.5-0.6c2.2-3.5-2.8-10.6-14-20L1639.3,517.3"/>
				<g>
					<g>
						<defs>
							<path id="SVGID_21_" d="M1541.9,463.3l1.4-2.6c30.8,9.8,75.4,34.3,99.5,54.6l-1.4,2.6
								C1617.3,497.6,1572.7,473.1,1541.9,463.3z"/>
						</defs>
						<clipPath id="SVGID_22_">
							<use xlink:href="#SVGID_21_"  style="overflow:visible;"/>
						</clipPath>
						<g class="st58">
							<g>
								<path class="st44" d="M1541.9,463.3l1.4-2.6l1.8,0.6l-1.4,2.6L1541.9,463.3"/>
								<path class="st43" d="M1543.8,463.9l1.4-2.6c0.9,0.3,1.8,0.6,2.7,0.9l-1.4,2.6C1545.5,464.5,1544.6,464.2,1543.8,463.9"/>
								<path class="st42" d="M1546.4,464.8l1.4-2.6c0.9,0.3,1.8,0.6,2.7,1l-1.4,2.6L1546.4,464.8"/>
								<path class="st41" d="M1549.1,465.8l1.4-2.6c0.9,0.3,1.8,0.7,2.7,1l-1.4,2.6C1550.9,466.4,1550,466.1,1549.1,465.8"/>
								<path class="st40" d="M1551.8,466.8l1.4-2.6l2.7,1l-1.4,2.6L1551.8,466.8"/>
								<path class="st39" d="M1554.5,467.8l1.4-2.6l2.7,1.1l-1.4,2.6L1554.5,467.8"/>
								<path class="st38" d="M1557.2,468.9l1.4-2.6c0.9,0.4,1.8,0.7,2.6,1.1l-1.4,2.6L1557.2,468.9"/>
								<path class="st37" d="M1559.8,470l1.4-2.6l2.6,1.1l-1.4,2.6L1559.8,470"/>
								<path class="st28" d="M1562.4,471.1l1.4-2.6l2.3,1l-1.4,2.6L1562.4,471.1"/>
								<path class="st29" d="M1564.7,472.1l1.4-2.6l2.3,1l-1.4,2.6L1564.7,472.1"/>
								<path class="st30" d="M1567,473.1l1.4-2.6l1.8,0.8l-1.4,2.6L1567,473.1"/>
								<path class="st31" d="M1568.8,473.9l1.4-2.6l1.8,0.8l-1.4,2.6L1568.8,473.9"/>
								<path class="st21" d="M1570.6,474.8l1.4-2.6l1.8,0.8l-1.4,2.6L1570.6,474.8"/>
								<path class="st32" d="M1572.4,475.6l1.4-2.6l1.3,0.6l-1.4,2.6L1572.4,475.6"/>
								<path class="st33" d="M1573.7,476.2l1.4-2.6l1.3,0.6l-1.4,2.6L1573.7,476.2"/>
								<path class="st34" d="M1575,476.8l1.4-2.6l1.3,0.6l-1.4,2.6L1575,476.8"/>
								<path class="st35" d="M1576.3,477.5l1.4-2.6l1.3,0.6l-1.4,2.6L1576.3,477.5"/>
								<path class="st36" d="M1577.5,478.1l1.4-2.6l1.1,0.5l-1.4,2.6L1577.5,478.1"/>
								<path class="st36" d="M1578.6,478.6l1.4-2.6l1,0.5l-1.4,2.6L1578.6,478.6"/>
								<path class="st36" d="M1579.6,479.1l1.4-2.6l1,0.5l-1.4,2.6L1579.6,479.1"/>
								<path class="st36" d="M1580.6,479.6l1.4-2.6l1,0.5l-1.4,2.6L1580.6,479.6"/>
								<path class="st36" d="M1581.6,480.1l1.4-2.6l1,0.5l-1.4,2.6L1581.6,480.1"/>
								<path class="st36" d="M1582.5,480.6l1.4-2.6l1,0.5l-1.4,2.6L1582.5,480.6"/>
								<path class="st36" d="M1583.5,481l1.4-2.6l0.9,0.5l-1.4,2.6L1583.5,481"/>
								<path class="st36" d="M1584.4,481.5l1.4-2.6l0.9,0.5l-1.4,2.6L1584.4,481.5"/>
								<path class="st36" d="M1585.3,482l1.4-2.6l0.9,0.5l-1.4,2.6L1585.3,482"/>
								<path class="st36" d="M1586.1,482.4l1.4-2.6l0.9,0.5l-1.4,2.6L1586.1,482.4"/>
								<path class="st36" d="M1587,482.9l1.4-2.6l0.9,0.5l-1.4,2.6L1587,482.9"/>
								<path class="st36" d="M1587.9,483.3l1.4-2.6l0.9,0.5l-1.4,2.6L1587.9,483.3"/>
								<path class="st36" d="M1588.8,483.8l1.4-2.6l1,0.5l-1.4,2.6L1588.8,483.8"/>
								<path class="st36" d="M1589.8,484.3l1.4-2.6l1,0.5l-1.4,2.6L1589.8,484.3"/>
								<path class="st36" d="M1590.8,484.9l1.4-2.6l1,0.5l-1.4,2.6L1590.8,484.9"/>
								<path class="st36" d="M1591.8,485.4l1.4-2.6l1,0.5l-1.4,2.6L1591.8,485.4"/>
								<path class="st36" d="M1592.8,486l1.4-2.6l1,0.5l-1.4,2.6L1592.8,486"/>
								<path class="st36" d="M1593.9,486.5l1.4-2.6l1.7,0.9l-1.4,2.6L1593.9,486.5"/>
								<path class="st36" d="M1595.5,487.5l1.4-2.6l1.9,1.1l-1.4,2.6L1595.5,487.5"/>
								<path class="st36" d="M1597.4,488.5l1.4-2.6l1.9,1.1l-1.4,2.6L1597.4,488.5"/>
								<path class="st36" d="M1599.3,489.6l1.4-2.6l0.9,0.5l-1.4,2.6L1599.3,489.6"/>
								<path class="st36" d="M1600.2,490.1l1.4-2.6c1.7,1,3.4,2,5.1,3l-1.4,2.6C1603.6,492.1,1601.9,491.1,1600.2,490.1"/>
								<path class="st36" d="M1605.3,493.1l1.4-2.6l1.3,0.8l-1.4,2.6L1605.3,493.1"/>
								<path class="st36" d="M1606.7,493.9l1.4-2.6l1.3,0.8l-1.4,2.6L1606.7,493.9"/>
								<path class="st36" d="M1608,494.6l1.4-2.6l1.3,0.8l-1.4,2.6L1608,494.6"/>
								<path class="st36" d="M1609.3,495.4l1.4-2.6l1.1,0.7l-1.4,2.6L1609.3,495.4"/>
								<path class="st36" d="M1610.4,496.1l1.4-2.6l0.9,0.6l-1.4,2.6L1610.4,496.1"/>
								<path class="st36" d="M1611.3,496.7l1.4-2.6l0.9,0.6l-1.4,2.6L1611.3,496.7"/>
								<path class="st36" d="M1612.3,497.3l1.4-2.6l0.9,0.6l-1.4,2.6L1612.3,497.3"/>
								<path class="st36" d="M1613.2,497.8l1.4-2.6l0.9,0.6l-1.4,2.6L1613.2,497.8"/>
								<path class="st36" d="M1614.1,498.4l1.4-2.6l0.9,0.6l-1.4,2.6L1614.1,498.4"/>
								<path class="st36" d="M1615,499l1.4-2.6l0.9,0.6l-1.4,2.6L1615,499"/>
								<path class="st36" d="M1615.9,499.6l1.4-2.6l0.9,0.6l-1.4,2.6L1615.9,499.6"/>
								<path class="st36" d="M1616.8,500.1l1.4-2.6l0.9,0.6l-1.4,2.6L1616.8,500.1"/>
								<path class="st36" d="M1617.7,500.7l1.4-2.6l0.9,0.6l-1.4,2.6L1617.7,500.7"/>
								<path class="st36" d="M1618.6,501.3l1.4-2.6l0.9,0.6l-1.4,2.6C1619.2,501.7,1618.9,501.5,1618.6,501.3"/>
								<path class="st36" d="M1619.5,501.9l1.4-2.6l1,0.6l-1.4,2.6L1619.5,501.9"/>
								<path class="st36" d="M1620.5,502.5l1.4-2.6l1.1,0.7l-1.4,2.6L1620.5,502.5"/>
								<path class="st36" d="M1621.6,503.3l1.4-2.6l1.1,0.7l-1.4,2.6L1621.6,503.3"/>
								<path class="st36" d="M1622.7,504l1.4-2.6l1.1,0.7l-1.4,2.6L1622.7,504"/>
								<path class="st36" d="M1623.8,504.8l1.4-2.6l1.1,0.8l-1.4,2.6L1623.8,504.8"/>
								<path class="st35" d="M1624.9,505.5l1.4-2.6l1.5,1.1l-1.4,2.6L1624.9,505.5"/>
								<path class="st34" d="M1626.4,506.6l1.4-2.6l1.5,1.1l-1.4,2.6L1626.4,506.6"/>
								<path class="st33" d="M1628,507.6l1.4-2.6l1.5,1.1l-1.4,2.6L1628,507.6"/>
								<path class="st32" d="M1629.5,508.7l1.4-2.6c0.7,0.5,1.4,1,2,1.5l-1.4,2.6C1630.8,509.7,1630.2,509.2,1629.5,508.7"/>
								<path class="st21" d="M1631.5,510.2l1.4-2.6l2,1.5l-1.4,2.6L1631.5,510.2"/>
								<path class="st31" d="M1633.5,511.7l1.4-2.6c0.8,0.6,1.5,1.2,2.3,1.7l-1.4,2.6C1635,512.8,1634.3,512.3,1633.5,511.7"/>
								<path class="st30" d="M1635.8,513.4l1.4-2.6l2.2,1.7l-1.4,2.6L1635.8,513.4"/>
								<path class="st29" d="M1638,515.2l1.4-2.6c0.8,0.6,1.5,1.2,2.2,1.8l-1.4,2.6C1639.5,516.4,1638.8,515.8,1638,515.2"/>
								<path class="st28" d="M1640.2,517l1.4-2.6c0.4,0.3,0.8,0.7,1.2,1l-1.4,2.6L1640.2,517"/>
							</g>
						</g>
					</g>
				</g>
			</g>
		</g>
		
			<linearGradient id="SVGID_23_" gradientUnits="userSpaceOnUse" x1="1611.42" y1="577.53" x2="1611.42" y2="592.53" gradientTransform="matrix(1 0 0 -1 0 1080)">
			<stop  offset="0" style="stop-color:#CCE0F4"/>
			<stop  offset="0" style="stop-color:#C3DAF0"/>
			<stop  offset="0" style="stop-color:#A9C9E4"/>
			<stop  offset="0" style="stop-color:#80AED1"/>
			<stop  offset="0" style="stop-color:#4689B7"/>
			<stop  offset="0" style="stop-color:#059447"/>
			<stop  offset="0.19" style="stop-color:#6FBE44"/>
			<stop  offset="0.4" style="stop-color:#5ABA47"/>
			<stop  offset="0.67" style="stop-color:#4EB748"/>
			<stop  offset="0.99" style="stop-color:#FFFFFF;stop-opacity:0.8"/>
		</linearGradient>
		<path class="st59" d="M1611.4,487.5L1611.4,487.5c4.1,0,7.5,3.4,7.5,7.5l0,0c0,4.1-3.4,7.5-7.5,7.5l0,0c-4.1,0-7.5-3.4-7.5-7.5
			l0,0C1603.9,490.8,1607.3,487.5,1611.4,487.5z"/>
		<path class="st60" d="M808.3,507L808.3,507c2.8,0,5,2.2,5,5l0,0c0,2.8-2.2,5-5,5l0,0c-2.8,0-5-2.2-5-5l0,0
			C803.3,509.2,805.5,507,808.3,507z"/>
	</g>
</g>
</svg>
